<svg id="Group_2123" data-name="Group 2123" xmlns="http://www.w3.org/2000/svg" width="257.388" height="48.503" viewBox="0 0 257.388 48.503">
  <rect id="Rectangle_719" data-name="Rectangle 719" width="7.918" height="35.288" transform="translate(55.219 6.581)" fill="#1c2674"/>
  <path id="Path_7204" data-name="Path 7204" d="M55.374,5.78H72.528c11.144,0,15.738,3.861,15.738,11.34,0,4.105-2.051,10.753-14.466,10.753H63.291v13.2H55.374V5.78m7.917,16.325h9.237c4.2,0,7.527-1.222,7.527-5.035,0-4.79-4.4-5.523-8.943-5.523h-7.82Z" transform="translate(13.238 0.801)" fill="#1c2674"/>
  <path id="Path_7205" data-name="Path 7205" d="M83.251,5.78h17.155c11.143,0,15.739,3.861,15.739,11.34,0,4.105-2.051,10.753-14.467,10.753H91.169v13.2H83.251V5.78m7.918,16.325h9.237c4.2,0,7.528-1.222,7.528-5.035,0-4.79-4.4-5.523-8.945-5.523H91.169Z" transform="translate(21.283 0.801)" fill="#1c2674"/>
  <path id="Path_7206" data-name="Path 7206" d="M137.017,5.78v5.768H118.593v8.6h17.4v5.767h-17.4V41.068h-7.92V5.78h26.344" transform="translate(29.197 0.801)" fill="#1c2674"/>
  <path id="Path_7207" data-name="Path 7207" d="M40.743,32a3.949,3.949,0,0,1-1.969.3c-.787-.115-2.283-1.138-1.343-2.094A5.035,5.035,0,0,0,38.7,26.448c-.015-2.8-1.787-5.808-4.767-5.139-2.962.667-4.184,2.935-4.169,5.734a6,6,0,0,0,3.2,4.991A2.313,2.313,0,0,1,32.336,35c-2.055,2.111-6.257,2.537-7.976,2.537a26.855,26.855,0,0,1-21.536-10.3A23.795,23.795,0,0,0,49.01,21.569c-.263,2.975-4.551,8.978-8.268,10.431" transform="translate(-1.928 5.255)" fill="#1c2674"/>
  <path id="Path_7208" data-name="Path 7208" d="M25.2,3.275c12.512-.013,22.029,9.333,24.1,20.683,0-.347,0-.7-.018-1.045A23.407,23.407,0,0,0,24.6.7,23.206,23.206,0,0,0,2.151,24.937c.014.351.041.7.071,1.045a29.517,29.517,0,0,1,.995-5.227,26.712,26.712,0,0,0,4.036,2.321A43.162,43.162,0,0,0,7,28.683a28.022,28.022,0,0,1,1.067-5.239,31.188,31.188,0,0,0,5.634,1.8,35.6,35.6,0,0,0,.916,9.878c.082-2.26.244-6.126.582-9.569a35.618,35.618,0,0,0,4.473.487c3.845.175,7.165.2,9.817-1.094a30.521,30.521,0,0,1-6.3.338,40.422,40.422,0,0,1-7.835-1.119A31.5,31.5,0,0,1,15.96,20.5c.16-.642.329-1.262.5-1.87a23.712,23.712,0,0,0,8.9.183,34.715,34.715,0,0,1-8.561-1.327,38.946,38.946,0,0,1,2.237-5.62A16.8,16.8,0,0,0,24.75,11.6a31.09,31.09,0,0,1-5.234-.646A32.939,32.939,0,0,1,25.2,3.275ZM15.095,5.6a32,32,0,0,0-2.368,3.249c-.536-.237-1.046-.482-1.513-.737A21.3,21.3,0,0,1,15.095,5.6ZM9.982,9.189c.648.307,1.317.59,1.995.858-.791,1.3-1.613,2.777-2.478,4.448a30.71,30.71,0,0,1-2.635-1.622A23.3,23.3,0,0,1,9.982,9.189ZM3.776,18.952a26.881,26.881,0,0,1,2.042-4.42,27.121,27.121,0,0,0,2.943,1.6A26.46,26.46,0,0,0,7.5,21.218,31.135,31.135,0,0,1,3.776,18.952Zm10.011,4.77a35.256,35.256,0,0,1-5.216-1.974,46.812,46.812,0,0,1,1.865-4.9,33.786,33.786,0,0,0,4.243,1.375A37.853,37.853,0,0,0,13.787,23.722Zm1.21-6.8a34.494,34.494,0,0,1-3.859-1.566,34.241,34.241,0,0,1,2.741-4.631,28.247,28.247,0,0,0,3.054.8A37.922,37.922,0,0,0,15,16.925ZM14.7,9.62a20.307,20.307,0,0,1,6.819-5.75,36.073,36.073,0,0,0-4.112,6.586C16.479,10.209,15.573,9.926,14.7,9.62Z" transform="translate(-2.129 -0.673)" fill="#00a6e2"/>
  <rect id="Rectangle_720" data-name="Rectangle 720" width="0.739" height="8.325" transform="translate(172.592 6.605)" fill="#1c2674"/>
  <path id="Path_7209" data-name="Path 7209" d="M137.972,9.442c0-.631-.035-1.253-.045-1.885h.643c.023.276.034.454.048.9h.025a1.675,1.675,0,0,1,1.55-.978c1.682,0,1.682,1.682,1.682,2.089V13.64h-.693v-4.1c0-.418,0-1.421-1.131-1.421-.847,0-1.384.8-1.384,1.742V13.64h-.693v-4.2" transform="translate(37.063 1.29)" fill="#1c2674"/>
  <path id="Path_7210" data-name="Path 7210" d="M143.337,6.429v1.43h1.241V8.5h-1.241v3.96c0,.49.084.92.669.92a1.1,1.1,0,0,0,.572-.133v.692a2.825,2.825,0,0,1-.8.084c-.894,0-1.134-.692-1.134-1.372V8.5h-.906V7.858h.906V6.643l.692-.214" transform="translate(38.163 0.988)" fill="#1c2674"/>
  <path id="Path_7211" data-name="Path 7211" d="M145.216,10.826c0,2.255,1.446,2.255,1.719,2.255a2.2,2.2,0,0,0,1.312-.5l.036.8a2.718,2.718,0,0,1-1.42.347c-2.384,0-2.384-2.517-2.384-3.125,0-2.29,1.133-3.125,2.157-3.125,1.767,0,1.943,1.872,1.943,3.352h-3.363m2.626-.644c0-1.611-.682-2.064-1.241-2.064-.942,0-1.385,1.277-1.385,2.064Z" transform="translate(38.953 1.29)" fill="#1c2674"/>
  <path id="Path_7212" data-name="Path 7212" d="M148.635,9.442c0-.631-.036-1.253-.046-1.885h.642c.012.36.036.716.049.968h.024a1.6,1.6,0,0,1,1.62-1.05v.74c-1.1,0-1.6.477-1.6,1.6V13.64h-.692v-4.2" transform="translate(40.14 1.29)" fill="#1c2674"/>
  <path id="Path_7213" data-name="Path 7213" d="M151.161,9.442c0-.631-.035-1.253-.046-1.885h.643c.024.276.036.454.048.9h.024a1.675,1.675,0,0,1,1.55-.978c1.682,0,1.682,1.682,1.682,2.089V13.64h-.691v-4.1c0-.418,0-1.421-1.135-1.421-.845,0-1.381.8-1.381,1.742V13.64h-.693v-4.2" transform="translate(40.869 1.29)" fill="#1c2674"/>
  <path id="Path_7214" data-name="Path 7214" d="M159.16,12.28c0,.454.036.907.07,1.359h-.619l-.048-.871h-.026a1.809,1.809,0,0,1-1.7.955,1.717,1.717,0,0,1-1.693-1.765c0-1.943,2.063-1.978,2.933-1.978h.442c0-.765,0-1.863-1.264-1.863a2.51,2.51,0,0,0-1.527.634l-.108-.741a3.233,3.233,0,0,1,1.67-.536,1.758,1.758,0,0,1,1.874,2.015V12.28m-.644-1.7c-1.432,0-2.636,0-2.636,1.383A1.11,1.11,0,0,0,157,13.081c.323,0,1.515-.133,1.515-1.79v-.715Z" transform="translate(42.03 1.29)" fill="#1c2674"/>
  <path id="Path_7215" data-name="Path 7215" d="M160.588,6.429v1.43h1.242V8.5h-1.242v3.96c0,.49.084.92.669.92a1.11,1.11,0,0,0,.573-.133v.692a2.836,2.836,0,0,1-.8.084c-.894,0-1.134-.692-1.134-1.372V8.5h-.906V7.858h.906V6.643l.692-.214" transform="translate(43.141 0.988)" fill="#1c2674"/>
  <path id="Path_7216" data-name="Path 7216" d="M161.971,5.66h.834V6.733h-.834V5.66m.07,2.42h.693v6.083h-.693Z" transform="translate(44.002 0.766)" fill="#1c2674"/>
  <path id="Path_7217" data-name="Path 7217" d="M163.571,10.6c0-1.527.5-3.125,2.28-3.125s2.277,1.6,2.277,3.125-.5,3.125-2.277,3.125-2.28-1.6-2.28-3.125m3.818,0c0-.49,0-2.482-1.539-2.482s-1.54,1.992-1.54,2.482,0,2.482,1.54,2.482S167.389,11.087,167.389,10.6Z" transform="translate(44.463 1.29)" fill="#1c2674"/>
  <path id="Path_7218" data-name="Path 7218" d="M168.08,9.442c0-.631-.036-1.253-.046-1.885h.643c.023.276.035.454.048.9h.023a1.681,1.681,0,0,1,1.551-.978c1.682,0,1.682,1.682,1.682,2.089V13.64h-.692v-4.1c0-.418,0-1.421-1.133-1.421-.847,0-1.384.8-1.384,1.742V13.64h-.692v-4.2" transform="translate(45.751 1.29)" fill="#1c2674"/>
  <path id="Path_7219" data-name="Path 7219" d="M176.08,12.28c0,.454.035.907.07,1.359h-.621l-.045-.871h-.024a1.811,1.811,0,0,1-1.7.955,1.719,1.719,0,0,1-1.7-1.765c0-1.943,2.066-1.978,2.934-1.978h.443c0-.765,0-1.863-1.264-1.863a2.533,2.533,0,0,0-1.53.634l-.107-.741a3.234,3.234,0,0,1,1.671-.536,1.758,1.758,0,0,1,1.874,2.015V12.28m-.644-1.7c-1.433,0-2.638,0-2.638,1.383a1.11,1.11,0,0,0,1.122,1.122c.322,0,1.515-.133,1.515-1.79Z" transform="translate(46.913 1.29)" fill="#1c2674"/>
  <rect id="Rectangle_721" data-name="Rectangle 721" width="0.691" height="8.945" transform="translate(224.588 5.985)" fill="#1c2674"/>
  <path id="Path_7220" data-name="Path 7220" d="M136.066,16.252h1.562c1.562,0,2.541.667,2.541,2.349a2.16,2.16,0,0,1-2.326,2.35h-1.037v3.626h-.74V16.252m.74,4.008h.75c1.1,0,1.826-.37,1.826-1.658,0-1.657-1.242-1.657-1.933-1.657h-.643V20.26Z" transform="translate(36.525 3.823)" fill="#1c2674"/>
  <rect id="Rectangle_722" data-name="Rectangle 722" width="0.691" height="8.945" transform="translate(177.969 19.455)" fill="#1c2674"/>
  <path id="Path_7221" data-name="Path 7221" d="M145.805,22.733c0,.454.035.907.072,1.361h-.621l-.049-.871h-.023a1.813,1.813,0,0,1-1.706.955,1.717,1.717,0,0,1-1.692-1.765c0-1.944,2.062-1.979,2.934-1.979h.439c0-.764,0-1.862-1.264-1.862a2.533,2.533,0,0,0-1.527.633l-.107-.74a3.23,3.23,0,0,1,1.671-.536,1.757,1.757,0,0,1,1.872,2.015v2.79m-.646-1.7c-1.43,0-2.636,0-2.636,1.384a1.11,1.11,0,0,0,1.122,1.121c.323,0,1.514-.133,1.514-1.789Z" transform="translate(38.176 4.307)" fill="#1c2674"/>
  <path id="Path_7222" data-name="Path 7222" d="M146.108,19.9c0-.633-.037-1.254-.046-1.885h.642c.026.274.037.454.049.894h.024a1.674,1.674,0,0,1,1.55-.977c1.682,0,1.682,1.682,1.682,2.086v4.078h-.691v-4.1c0-.418,0-1.42-1.135-1.42-.847,0-1.383.8-1.383,1.743v3.778h-.692V19.9" transform="translate(39.41 4.307)" fill="#1c2674"/>
  <path id="Path_7223" data-name="Path 7223" d="M150.347,19.9c0-.633-.036-1.254-.046-1.885h.643c.025.274.035.454.048.894h.025a1.674,1.674,0,0,1,1.55-.977c1.682,0,1.682,1.682,1.682,2.086v4.078h-.692v-4.1c0-.418,0-1.42-1.134-1.42-.847,0-1.383.8-1.383,1.743v3.778h-.692V19.9" transform="translate(40.634 4.307)" fill="#1c2674"/>
  <path id="Path_7224" data-name="Path 7224" d="M155.066,21.278c0,2.255,1.443,2.255,1.715,2.255a2.191,2.191,0,0,0,1.312-.5l.037.8a2.725,2.725,0,0,1-1.419.347c-2.385,0-2.385-2.518-2.385-3.126,0-2.29,1.134-3.124,2.158-3.124,1.764,0,1.944,1.872,1.944,3.35h-3.363m2.624-.644c0-1.609-.68-2.063-1.241-2.063-.942,0-1.383,1.276-1.383,2.063Z" transform="translate(41.795 4.307)" fill="#1c2674"/>
  <path id="Path_7225" data-name="Path 7225" d="M162.491,22.7c0,.954.024,1.49.048,2.015H161.9v-.835h-.023a1.864,1.864,0,0,1-1.6.919c-1.981,0-2.05-2.505-2.05-3.353,0-1.156.487-2.9,2.014-2.9a1.586,1.586,0,0,1,1.54.87h.022V15.771h.692V22.7m-2.146,1.455c1.18,0,1.5-1.17,1.5-2.41,0-.809,0-2.553-1.491-2.553-1.037,0-1.4,1.075-1.4,2.481C158.96,22.175,158.96,24.156,160.345,24.156Z" transform="translate(42.92 3.684)" fill="#1c2674"/>
  <path id="Path_7226" data-name="Path 7226" d="M165,16.252h1.563c1.562,0,2.539.667,2.539,2.349a2.159,2.159,0,0,1-2.325,2.35h-1.039v3.626H165V16.252m.738,4.008h.753c1.1,0,1.823-.37,1.823-1.658,0-1.657-1.24-1.657-1.93-1.657h-.646Z" transform="translate(44.875 3.823)" fill="#1c2674"/>
  <path id="Path_7227" data-name="Path 7227" d="M172.553,22.733c0,.454.037.907.072,1.361h-.62l-.048-.871h-.024a1.813,1.813,0,0,1-1.706.955,1.717,1.717,0,0,1-1.692-1.765c0-1.944,2.062-1.979,2.934-1.979h.441c0-.764,0-1.862-1.264-1.862a2.52,2.52,0,0,0-1.527.633l-.108-.74a3.234,3.234,0,0,1,1.671-.536,1.757,1.757,0,0,1,1.871,2.015v2.79m-.643-1.7c-1.432,0-2.636,0-2.636,1.384a1.109,1.109,0,0,0,1.12,1.121c.325,0,1.517-.133,1.517-1.789Z" transform="translate(45.896 4.307)" fill="#1c2674"/>
  <path id="Path_7228" data-name="Path 7228" d="M172.857,19.9c0-.633-.036-1.254-.046-1.885h.643c.01.36.035.715.048.966h.023a1.6,1.6,0,0,1,1.621-1.049v.738c-1.1,0-1.6.477-1.6,1.6v3.828h-.692V19.9" transform="translate(47.13 4.307)" fill="#1c2674"/>
  <path id="Path_7229" data-name="Path 7229" d="M175.864,21.278c0,2.255,1.443,2.255,1.715,2.255a2.192,2.192,0,0,0,1.312-.5l.037.8a2.73,2.73,0,0,1-1.419.347c-2.386,0-2.386-2.518-2.386-3.126,0-2.29,1.135-3.124,2.16-3.124,1.765,0,1.943,1.872,1.943,3.35h-3.362m2.622-.644c0-1.609-.679-2.063-1.24-2.063-.942,0-1.383,1.276-1.383,2.063Z" transform="translate(47.797 4.307)" fill="#1c2674"/>
  <path id="Path_7230" data-name="Path 7230" d="M179.279,19.9c0-.633-.035-1.254-.046-1.885h.644c.024.274.035.454.046.894h.026a1.675,1.675,0,0,1,1.549-.977c1.682,0,1.682,1.682,1.682,2.086v4.078h-.692v-4.1c0-.418,0-1.42-1.131-1.42-.847,0-1.385.8-1.385,1.743v3.778h-.692V19.9" transform="translate(48.983 4.307)" fill="#1c2674"/>
  <path id="Path_7231" data-name="Path 7231" d="M184.645,16.883v1.429h1.241v.644h-1.241v3.959c0,.49.082.92.668.92a1.106,1.106,0,0,0,.573-.133V24.4a2.884,2.884,0,0,1-.8.084c-.894,0-1.133-.693-1.133-1.372V18.956h-.907v-.644h.907V17.1l.692-.213" transform="translate(50.084 4.005)" fill="#1c2674"/>
  <path id="Path_7232" data-name="Path 7232" d="M186.036,15.771h.691v3.756h.024a1.627,1.627,0,0,1,1.5-.977c1.682,0,1.682,1.682,1.682,2.086v4.08h-.689v-4.1c0-.418,0-1.42-1.134-1.42-.847,0-1.384.8-1.384,1.743v3.779h-.691V15.771" transform="translate(50.947 3.684)" fill="#1c2674"/>
  <path id="Path_7233" data-name="Path 7233" d="M190.025,21.052c0-1.526.5-3.124,2.276-3.124s2.28,1.6,2.28,3.124-.5,3.126-2.28,3.126-2.276-1.6-2.276-3.126m3.814,0c0-.488,0-2.481-1.539-2.481s-1.537,1.992-1.537,2.481,0,2.482,1.537,2.482S193.839,21.541,193.839,21.052Z" transform="translate(52.098 4.307)" fill="#1c2674"/>
  <path id="Path_7234" data-name="Path 7234" d="M194.273,21.052c0-1.526.5-3.124,2.277-3.124s2.278,1.6,2.278,3.124-.5,3.126-2.278,3.126-2.277-1.6-2.277-3.126m3.817,0c0-.488,0-2.481-1.54-2.481s-1.537,1.992-1.537,2.481,0,2.482,1.537,2.482S198.09,21.541,198.09,21.052Z" transform="translate(53.324 4.307)" fill="#1c2674"/>
  <path id="Path_7235" data-name="Path 7235" d="M202.79,22.7c0,.954.024,1.49.048,2.015h-.643v-.835h-.023a1.865,1.865,0,0,1-1.6.919c-1.978,0-2.05-2.505-2.05-3.353,0-1.156.488-2.9,2.015-2.9a1.583,1.583,0,0,1,1.539.87h.023V15.771h.692V22.7m-2.146,1.455c1.18,0,1.5-1.17,1.5-2.41,0-.809,0-2.553-1.491-2.553-1.037,0-1.4,1.075-1.4,2.481C199.259,22.175,199.259,24.156,200.645,24.156Z" transform="translate(54.55 3.684)" fill="#1c2674"/>
  <path id="Path_7236" data-name="Path 7236" d="M136.066,26.706h3.4V27.4h-2.66v2.956h2.528v.691h-2.528v3.984h-.739V26.706" transform="translate(36.526 6.84)" fill="#1c2674"/>
  <path id="Path_7237" data-name="Path 7237" d="M139.824,31.732c0,2.254,1.442,2.254,1.716,2.254a2.2,2.2,0,0,0,1.313-.5l.033.8a2.716,2.716,0,0,1-1.419.345c-2.384,0-2.384-2.517-2.384-3.125,0-2.29,1.133-3.124,2.158-3.124,1.765,0,1.945,1.872,1.945,3.35h-3.363m2.624-.644c0-1.611-.68-2.064-1.242-2.064-.942,0-1.381,1.277-1.381,2.064Z" transform="translate(37.396 7.324)" fill="#1c2674"/>
  <path id="Path_7238" data-name="Path 7238" d="M147.25,33.153c0,.954.023,1.491.048,2.015h-.646v-.835h-.022a1.864,1.864,0,0,1-1.6.919c-1.978,0-2.05-2.5-2.05-3.35,0-1.158.49-2.9,2.017-2.9a1.585,1.585,0,0,1,1.539.869h.022V26.226h.693v6.927M145.1,34.608c1.18,0,1.5-1.169,1.5-2.41,0-.811,0-2.553-1.49-2.553-1.037,0-1.4,1.075-1.4,2.482C143.718,32.629,143.718,34.608,145.1,34.608Z" transform="translate(38.521 6.701)" fill="#1c2674"/>
  <path id="Path_7239" data-name="Path 7239" d="M147.958,31.732c0,2.254,1.445,2.254,1.719,2.254a2.192,2.192,0,0,0,1.312-.5l.035.8a2.728,2.728,0,0,1-1.419.345c-2.387,0-2.387-2.517-2.387-3.125,0-2.29,1.135-3.124,2.158-3.124,1.767,0,1.944,1.872,1.944,3.35h-3.363m2.624-.644c0-1.611-.679-2.064-1.238-2.064-.943,0-1.385,1.277-1.385,2.064Z" transform="translate(39.744 7.324)" fill="#1c2674"/>
  <path id="Path_7240" data-name="Path 7240" d="M151.377,30.349c0-.631-.037-1.253-.048-1.885h.642c.014.36.037.716.049.968h.026a1.6,1.6,0,0,1,1.621-1.05v.741c-1.1,0-1.6.475-1.6,1.6v3.828h-.691v-4.2" transform="translate(40.93 7.323)" fill="#1c2674"/>
  <path id="Path_7241" data-name="Path 7241" d="M157.5,33.187c0,.452.037.906.073,1.359h-.621l-.046-.871h-.026a1.808,1.808,0,0,1-1.7.955,1.717,1.717,0,0,1-1.695-1.765c0-1.943,2.063-1.979,2.934-1.979h.441c0-.764,0-1.862-1.263-1.862a2.52,2.52,0,0,0-1.528.634l-.107-.741a3.226,3.226,0,0,1,1.67-.536A1.757,1.757,0,0,1,157.5,30.4v2.791m-.642-1.7c-1.432,0-2.636,0-2.636,1.383a1.107,1.107,0,0,0,1.12,1.121c.322,0,1.517-.131,1.517-1.789Z" transform="translate(41.55 7.323)" fill="#1c2674"/>
  <path id="Path_7242" data-name="Path 7242" d="M158.927,27.336v1.429h1.237v.644h-1.237v3.96c0,.488.081.919.666.919a1.086,1.086,0,0,0,.571-.131v.692a2.793,2.793,0,0,1-.8.084c-.894,0-1.134-.692-1.134-1.372V29.409h-.907v-.644h.907V27.55l.693-.214" transform="translate(42.661 7.022)" fill="#1c2674"/>
  <path id="Path_7243" data-name="Path 7243" d="M160.308,26.567h.835V27.64h-.835V26.567m.072,2.42h.691V35.07h-.691Z" transform="translate(43.522 6.8)" fill="#1c2674"/>
  <path id="Path_7244" data-name="Path 7244" d="M161.908,31.506c0-1.527.5-3.124,2.278-3.124s2.277,1.6,2.277,3.124-.5,3.125-2.277,3.125-2.278-1.6-2.278-3.125m3.817,0c0-.49,0-2.482-1.539-2.482s-1.539,1.992-1.539,2.482,0,2.481,1.539,2.481S165.725,31.994,165.725,31.506Z" transform="translate(43.983 7.324)" fill="#1c2674"/>
  <path id="Path_7245" data-name="Path 7245" d="M166.418,30.349c0-.631-.036-1.253-.048-1.885h.643c.026.276.036.454.049.894h.023a1.68,1.68,0,0,1,1.55-.977c1.682,0,1.682,1.682,1.682,2.088v4.078h-.691v-4.1c0-.418,0-1.421-1.134-1.421-.847,0-1.383.8-1.383,1.742v3.781h-.692v-4.2" transform="translate(45.271 7.323)" fill="#1c2674"/>
</svg>
