<?xml version="1.0" encoding="iso-8859-1"?>
<!-- Uploaded to: SVG Repo, www.svgrepo.com, Generator: SVG Repo Mixer Tools -->
<svg fill="#000000" height="800px" width="800px" version="1.1" id="Layer_1" xmlns="http://www.w3.org/2000/svg" xmlns:xlink="http://www.w3.org/1999/xlink" 
	 viewBox="0 0 512 512" xml:space="preserve">
<g>
	<g>
		<path d="M373.322,120c-21.32,0-37.32-17.68-37.32-39V0H74.61C63.582,0,56.002,8.584,56.002,19.608v472
			c0,11.032,7.58,20.392,18.608,20.392h360.1c11.024,0,21.288-9.36,21.288-20.392V120H373.322z M188.582,151.672
			c29.772,0,54,24.22,54,54c0,29.764-24.228,53.984-54,53.984c-29.772,0-53.992-24.22-53.992-53.984
			C134.586,175.892,158.806,151.672,188.582,151.672z M154.902,387.804c-4.272,0-8.288-1.664-11.312-4.688
			c-3.024-3.016-4.688-7.04-4.688-11.312c0-4.272,1.664-8.288,4.688-11.312l200.244-200.236c6.048-6.048,16.58-6.048,22.624,0
			c3.024,3.016,4.688,7.04,4.688,11.312c0,4.272-1.664,8.288-4.688,11.312L166.214,383.116
			C163.19,386.14,159.174,387.804,154.902,387.804z M320.714,391.788c-29.764,0-53.992-24.22-53.992-53.984
			c0-29.772,24.228-54,53.992-54c29.78,0,54,24.228,54,54C374.714,367.572,350.494,391.788,320.714,391.788z"/>
	</g>
</g>
<g>
	<g>
		<path d="M320.722,315.556c-12.264,0-22.248,9.984-22.248,22.248s9.984,22.244,22.248,22.244s22.244-9.976,22.244-22.244
			C342.966,325.536,332.986,315.556,320.722,315.556z"/>
	</g>
</g>
<g>
	<g>
		<path d="M188.582,183.416c-12.264,0-22.244,9.984-22.244,22.248c0,12.264,9.976,22.244,22.244,22.244
			c12.264,0,22.248-9.976,22.248-22.244S200.846,183.416,188.582,183.416z"/>
	</g>
</g>
<g>
	<g>
		<path d="M360.002,9.952V81c0,8.084,5.236,15,13.32,15h71.048L360.002,9.952z"/>
	</g>
</g>
</svg>