<?xml version="1.0" encoding="utf-8"?>
<!-- Generator: Adobe Illustrator 24.1.0, SVG Export Plug-In . SVG Version: 6.00 Build 0)  -->
<svg version="1.1" id="Layer_1" xmlns="http://www.w3.org/2000/svg" xmlns:xlink="http://www.w3.org/1999/xlink" x="0px" y="0px"
	 viewBox="0 0 30 30" style="enable-background:new 0 0 30 30;" xml:space="preserve">
<style type="text/css">
	.st0{fill:#2050be;}
	.st1{fill:#6080c0;}
	.st2{fill:#222240;}
	.st3{fill:#81C45B;}
	.st4{fill:#999999;}
</style>
<g>
	<g>
		<rect x="5" y="22" class="st0" width="4" height="4"/>
	</g>
	<g>
		<rect x="5" y="15" class="st1" width="4" height="7"/>
	</g>
	<g>
		<rect x="5" y="9" class="st2" width="4" height="6"/>
	</g>
	<g>
		<rect x="5" y="5" class="st3" width="4" height="4"/>
	</g>
	<g>
		<rect x="11" y="21" class="st0" width="4" height="5"/>
	</g>
	<g>
		<rect x="11" y="17" class="st1" width="4" height="4"/>
	</g>
	<g>
		<rect x="11" y="13" class="st2" width="4" height="4"/>
	</g>
	<g>
		<rect x="11" y="8" class="st3" width="4" height="5"/>
	</g>
	<g>
		<rect x="23" y="19" class="st0" width="4" height="7"/>
	</g>
	<g>
		<rect x="23" y="15" class="st1" width="4" height="4"/>
	</g>
	<g>
		<rect x="23" y="11" class="st2" width="4" height="4"/>
	</g>
	<g>
		<rect x="23" y="6" class="st3" width="4" height="5"/>
	</g>
	<g>
		<rect x="17" y="20" class="st0" width="4" height="6"/>
	</g>
	<g>
		<rect x="17" y="17" class="st1" width="4" height="3"/>
	</g>
	<g>
		<rect x="17" y="14" class="st2" width="4" height="3"/>
	</g>
	<g>
		<rect x="17" y="9" class="st3" width="4" height="5"/>
	</g>
	<g>
		<path class="st4" d="M28,27H3H2v-1V3h1v23h25V27z"/>
	</g>
</g>
</svg>
