<?xml version="1.0" encoding="utf-8"?>
<!-- Generator: Adobe Illustrator 24.1.0, SVG Export Plug-In . SVG Version: 6.00 Build 0)  -->
<svg version="1.1" id="Layer_1" xmlns="http://www.w3.org/2000/svg" xmlns:xlink="http://www.w3.org/1999/xlink" x="0px" y="0px"
	 viewBox="0 0 30 30" style="enable-background:new 0 0 30 30;" xml:space="preserve">
<style type="text/css">
	.st0{fill:#E6E6E6;}
	.st1{fill:#6080c0;}
	.st2{fill:#2050be;}
</style>
<g>
	<g>
		<polygon class="st0" points="28,10 2,10 2,14 7,14 28,14 		"/>
	</g>
	<g>
		<polygon class="st0" points="28,18 2,18 2,22 7,22 28,22 		"/>
	</g>
	<g>
		<polygon class="st0" points="28,3 2,3 2,7 7,7 28,7 		"/>
	</g>
	<polygon class="st1" points="27,7 27,26 23,26 23,7 22,7 22,26 18,26 18,7 17,7 17,26 13,26 13,7 12,7 12,26 8,26 8,7 7,7 7,26 
		3,26 3,7 2,7 2,26 2,27 3,27 7,27 8,27 12,27 13,27 17,27 18,27 22,27 23,27 27,27 28,27 28,26 28,7 	"/>
	<path class="st2" d="M23,3h-1h-4h-1h-4h-1H8H7H2v3v1h1h4h1h4h1h4h1h4h1h4h1V6V3H23z M3,6V4h4v2H3z M8,6V4h4v2H8z M13,6V4h4v2H13z
		 M18,6V4h4v2H18z M23,6V4h4v2H23z"/>
</g>
</svg>
