<?xml version="1.0" encoding="utf-8"?>
<!-- Generator: Adobe Illustrator 24.1.0, SVG Export Plug-In . SVG Version: 6.00 Build 0)  -->
<svg version="1.1" id="Layer_1" xmlns="http://www.w3.org/2000/svg" xmlns:xlink="http://www.w3.org/1999/xlink" x="0px" y="0px"
	 viewBox="0 0 30 30" style="enable-background:new 0 0 30 30;" xml:space="preserve">
<style type="text/css">
	.st0{fill:#81C45B;}
	.st1{fill:#2050be;}
	.st2{fill:#999999;}
</style>
<g>
	<g>
		<path class="st0" d="M3.3,26.4l-0.6-0.8l2.8-3.7c2.8-2.2,6.6-3.1,8.6-2.2c1.6,0.8,4.4,0.4,6-0.8c1.9-1.4,6-1.8,7.1-0.9
			s1.3,1.6,1.3,1.6l-0.5,1c0,0-0.2-0.8-1.3-1.6c-1.1-0.8-4.4-0.4-6,0.8c-1.9,1.4-5.1,1.8-7.1,0.9c-1.6-0.8-5.1,0.2-7.5,2L3.3,26.4z"
			/>
	</g>
	<g>
		<path class="st1" d="M3.4,26.3l-0.8-0.5l4.3-9.9c1.9-3,5.1-4.6,7.1-3.6c1.6,0.8,4.3-0.3,5.9-2.4c1.9-2.5,5.8-3.5,7.2-2.6
			S28.4,9,28.4,9L28,9.8c0,0,0.1-0.9-1.3-1.7s-4.3,0.3-5.9,2.4c-1.9,2.5-5.2,3.7-7.2,2.6c-1.6-0.8-4.2,0.7-5.9,3.2L3.4,26.3z"/>
	</g>
	<g>
		<path class="st2" d="M28,27H3H2v-1V3h1v23h25V27z"/>
	</g>
</g>
</svg>
