<?xml version="1.0" encoding="utf-8"?>
<!-- Generator: Adobe Illustrator 24.1.0, SVG Export Plug-In . SVG Version: 6.00 Build 0)  -->
<svg version="1.1" id="Layer_1" xmlns="http://www.w3.org/2000/svg" xmlns:xlink="http://www.w3.org/1999/xlink" x="0px" y="0px"
	 viewBox="0 0 30 30" style="enable-background:new 0 0 30 30;" xml:space="preserve">
<style type="text/css">
	.st0{fill:#2050be;}
	.st1{fill:#6080c0;}
	.st2{fill:#222240;}
	.st3{fill:#81C45B;}
	.st4{fill:#00CA77;}
	.st5{fill:#999999;}
</style>
<g>
	<g>
		<rect x="3" y="21" class="st0" width="4" height="4"/>
	</g>
	<g>
		<rect x="7" y="21" class="st1" width="6" height="4"/>
	</g>
	<g>
		<rect x="13" y="21" class="st2" width="6" height="4"/>
	</g>
	<g>
		<rect x="19" y="21" class="st3" width="5" height="4"/>
	</g>
	<g>
		<rect x="3" y="15" class="st0" width="5" height="4"/>
	</g>
	<g>
		<rect x="8" y="15" class="st1" width="6" height="4"/>
	</g>
	<g>
		<rect x="14" y="15" class="st2" width="4" height="4"/>
	</g>
	<g>
		<rect x="18" y="15" class="st3" width="8" height="4"/>
	</g>
	<g>
		<rect x="3" y="3" class="st0" width="7" height="4"/>
	</g>
	<g>
		<rect x="10" y="3" class="st1" width="5" height="4"/>
	</g>
	<g>
		<rect x="15" y="3" class="st2" width="5" height="4"/>
	</g>
	<g>
		<rect x="20" y="3" class="st3" width="6" height="4"/>
	</g>
	<g>
		<rect x="3" y="9" class="st0" width="6" height="4"/>
	</g>
	<g>
		<rect x="9" y="9" class="st1" width="3" height="4"/>
	</g>
	<g>
		<rect x="12" y="9" class="st2" width="5" height="4"/>
	</g>
	<g>
		<rect x="17" y="9" class="st4" width="5" height="4"/>
	</g>
	<g>
		<path class="st5" d="M28,27H3H2v-1V3h1v23h25V27z"/>
	</g>
</g>
</svg>
