<?xml version="1.0" encoding="utf-8"?>
<!-- Generator: Adobe Illustrator 24.1.0, SVG Export Plug-In . SVG Version: 6.00 Build 0)  -->
<svg version="1.1" id="Layer_1" xmlns="http://www.w3.org/2000/svg" xmlns:xlink="http://www.w3.org/1999/xlink" x="0px" y="0px"
	 viewBox="0 0 30 30" style="enable-background:new 0 0 30 30;" xml:space="preserve">
<style type="text/css">
	.st0{fill:#CCCCCC;}
	.st1{fill:#2050be;}
	.st2{fill:#222240;}
	.st3{fill:#81C45B;}
	.st4{fill:#6080c0;}
	.st5{fill:#BD1E1E;}
</style>
<g>
	<g>
		<g>
			<path class="st0" d="M10.5,18.5C10.3,18.2,9.3,18,9,18c0.1-0.3,0.1-0.4-0.3-0.6c-0.1-0.1-1-0.4-0.8-0.4c-0.1-0.1-0.4,0-0.6-0.1
				c0,0.1,0,0.1-0.1,0.1c0,0,0-0.1,0.1-0.1c-0.2-0.3-0.5,0.3-0.5,0.4s0,0.4-0.1,0.4c-0.1,0.3-0.3,0.4-0.3,0.5c0,0.4,0.1,0.4,0.4,0.9
				c0.2,0.3,0.5,0.4,0.7,0.7c0.2,0.4,0,1,0,1.3c0,0.4-0.2,1.2,0.1,1.5c-0.2,0,0.1,0.3-0.2,0.2c0,0.1,0.1,0.4,0.2,0.5
				c0.1,0.3,0.6,0.6,0.1,0.4c0.1,0.1,0.4,0.4,0.6,0.3c-0.1,0-0.1,0-0.1-0.1c0.3,0.1,0,0,0.3,0c0-0.1-0.4-0.2-0.4-0.4
				C8,23.4,8.2,23.1,8.2,23c0-0.2-0.1-0.3-0.1-0.4s0.2-0.3,0.3-0.4c-0.1-0.2-0.1,0-0.2-0.3c0.3,0.1,0.3,0,0.3-0.3
				c0.5,0.3,0.4-0.4,0.3-0.5c0.4,0.1,0.6-0.3,0.8-0.6c0.1-0.2,0-0.3,0.2-0.4c0.1-0.1,0.3-0.1,0.3-0.2c0.1-0.1,0.2-0.1,0.3-0.2
				c0.1-0.2,0.1-0.4,0.1-0.5C10.2,19.1,10.7,18.8,10.5,18.5z"/>
		</g>
		<g>
			<g>
				<path class="st0" d="M18.5,16.8c-0.9,0.4-1.1-0.6-1.4-1.3c-0.4-0.5-0.6-0.9-1.4-0.9c-0.3,0,0.1,0.3-0.4,0.2l-0.4-0.2
					c-0.2-0.3,0-0.3-0.4-0.4c-0.4-0.1-0.9,0.2-1.2,0.3c-0.3,0.2-0.4,0.3-0.5,0.5c-0.4,0.6-0.9,1.2-0.3,1.9c0.4,0.4,0.6,0.5,1.2,0.4
					c0.3,0,0.4-0.1,0.5-0.1c-0.1,0,0.4,0.2,0.4,0.1c0.2,0.2,0,0.2,0.1,0.4c0.1,0.1,0.1,0.4,0.2,0.5s0.2,0.3,0.2,0.4
					c0,0.3-0.1,0.3-0.1,0.5c-0.1,0.4,0.3,1,0.4,1.4c0.2,0.5,0.4,0.7,1,0.4c0.2-0.1,0.4-0.4,0.4-0.5l0.3-0.4c0-0.1-0.1-0.4,0-0.4
					s0.3-0.1,0.3-0.2c0.2-0.2,0.3-0.3,0.3-0.5c0-0.4-0.2-0.5,0.1-1c0.2-0.2,0.4-0.4,0.6-0.5C18.3,17.4,18.8,16.7,18.5,16.8z"/>
			</g>
			<g>
				<path class="st0" d="M18.1,19.4c0.1-0.1,0.2-0.2,0.3-0.4c0.3,0.2-0.1,1.3-0.4,1.3C17.6,20.5,17.8,19.5,18.1,19.4z"/>
			</g>
		</g>
		<g>
			<g>
				<path class="st0" d="M26.2,19c0.2,0.1,0.4,0.1,0.4,0.1c-0.2,0.2-0.2,0.6,0.2,0.5c0.2,0,0.2-0.5,0.3-0.7c0.3,0.2,0.2,0.6,0.4,0.9
					c0.1,0.2,0.3,0.4,0.4,0.5c0.3,0.7-0.3,1.5-0.9,1.9c-0.1-0.2-0.4-0.2-0.5-0.4c-0.1-0.2-0.2-0.2-0.1-0.4c-0.1-0.1-0.1,0-0.2,0.1
					c0-0.1-0.1-0.2-0.1-0.3c-0.1,0-0.1-0.1-0.3-0.1c-0.3,0-0.5,0.2-0.7,0.3c-1.2,0.4-0.4-0.4-0.6-0.9c0-0.2,0-0.4,0.1-0.5
					c0.2-0.2,0.4-0.1,0.5-0.2s0.1-0.2,0.3-0.3c0.1-0.1,0.4-0.4,0.6-0.2C26,19.4,26,19.2,26.2,19c0,0.1,0.1,0.1,0,0.2
					C26.2,19.2,26.2,19.1,26.2,19z"/>
			</g>
			<g>
				<path class="st0" d="M29.3,22.9c0.3,0.3-0.4,1-0.7,0.9C28.4,23.6,29.2,23,29.3,22.9z"/>
			</g>
			<g>
				<path class="st0" d="M29.6,22.9c0.1-0.1,0.1-0.2,0-0.3c0.3-0.2,0.2-0.4,0.1-0.6c0,0,0.4,0.6,0.4,0.5
					C30,22.5,29.6,23.2,29.6,22.9z"/>
			</g>
			<g>
				<path class="st0" d="M26.9,23.1c-0.2,0-0.1-0.4-0.1-0.4C27.1,22.7,27.2,22.8,26.9,23.1z"/>
			</g>
		</g>
		<g>
			<path class="st0" d="M10.2,6.6c-0.1,0-0.2,0-0.3,0C10.1,6.7,9.2,7.1,9.1,7c0,0.1,0.2,0,0.2,0.2C9.1,7.1,9.3,7.4,9,7.4
				c0.1,0.1-0.2,0.2-0.3,0.3c0.3,0.4-0.9,0-0.9,0c0.2,0,0.2,0,0,0c0,0.1,1.3,0.5,0.3,0.5C7.8,8.2,7.7,8,7.6,7.8c0,0.1,0-0.4,0-0.3
				l-0.1,0c0.1-0.1,0.8,0.4,0.6-0.1c0.2-0.1,0.1,0.2,0.3,0.2c0-0.2-0.1-0.2-0.1-0.4C8.1,7.5,7.8,6.9,8.1,6.9c0,0-0.3-0.4,0.1-0.3
				c0.1-0.2-0.4-0.1,0.1-0.2c0.1-0.1,0.2-0.1,0.1-0.2c0.2-0.1,0.3,0.4,0.3,0.4c0.2,0,0.2-0.1,0.3,0.1c0-0.3,0.3,0,0.3-0.1
				c-0.8,0-0.5-0.1-0.7-0.4C8.7,6,9,6.2,9,6.2C9,6.1,9,6,9.2,6c0.3,0.4,0.1-0.3,0.4,0.1c0.1,0,0-0.1,0-0.1c0.2,0,0.4,0,0.5,0.1
				C10.1,6.1,10.7,6.5,10.2,6.6z M8.5,7c0,0.1,0.1,0.2,0.2,0.2C8.6,7.1,8.5,7.1,8.5,7z"/>
		</g>
		<g>
			<path class="st0" d="M6,17.2c0.2,0.1,0.2,0.1,0.3-0.1C6,17.2,6,16.8,6,16.7c-0.1-0.1,0.1-0.2,0-0.3c-0.1-0.1-0.4-0.1-0.4-0.1
				c0-0.1,0.2-0.5,0.2-0.5c-0.3-0.2-0.4,0.3-0.4,0.3c-0.5,0.2-0.6-0.5-0.4-0.9c0.2-0.3,0.5-0.3,0.7-0.3c0.1,0,0.4-0.1,0.5,0
				c0,0,0.3,0.6,0.3,0.5c0.1-0.2-0.1-0.4,0-0.6c0.1-0.2,0.3-0.2,0.4-0.4c0-0.1,0-0.2,0.1-0.4s0.4-0.2,0.5-0.4
				c0.1-0.1,0.3-0.4,0.4-0.4c-0.2,0.4,0.4,0,0.4,0C8.4,13.1,8.4,13,8.2,13c0,0.1,0.1,0.1,0.2,0.1c-0.4,0,0.2-0.5-0.4-0.4
				c0.4-0.3,0.3-0.1,0.6-0.2c0.1,0,0.3-0.2,0.4-0.1c-0.1,0.2-0.2,0.3-0.3,0.4C8.9,13,9,12.9,9.1,13c0.1-0.1,0.1,0,0.2,0.1
				c0,0-0.1-0.4,0-0.4c-0.1-0.1-0.2,0-0.2-0.1s0.1-0.2,0.1-0.3C9.1,12.2,9,12.1,9,11.9c-0.2-0.3-0.2-0.4-0.3-0.9
				c-0.4,0.6-0.3,0.1-0.4-0.1c-0.1-0.1-0.4-0.4-0.5-0.3l-0.3,0.6c0.1,0.1,0.2,0.3,0.1,0.4c-0.1,0.1-0.3,0.1-0.4,0.2
				c-0.1,0.2,0,0.8-0.3,0.3H7c0.1-0.4-0.7-0.5-0.8-1c-0.2-0.4,0.2-0.5,0.4-0.8c0-0.1,0-0.1-0.1-0.2C6.6,10.3,7,10,7,10
				c-0.3,0.5-0.1,0.3,0.1,0.3c0,0,0.2,0.1,0.3,0.1c0-0.1-0.2-0.3-0.3-0.4c0.3,0.1,0.5,0,0.4-0.4c0.3,0.2,0.2-0.3,0-0.3
				c0,0-0.3,0.4-0.4,0.4c0-0.1,0.1-0.6-0.1-0.3C6.9,9.3,7.1,9.3,6.9,9.2c0.3,0,0.2-0.4,0-0.5C6.5,9,6.9,9.3,6.6,9.5
				c0.1,0-0.4,0-0.4,0C6.1,9.4,5.7,9,5.6,9.2c0.1,0,0.1,0,0.2,0.1c-0.2,0-0.2,0.1-0.2,0.3C5.5,9.4,5.5,9.3,5.4,9.3
				C5.3,9.2,5.1,9.3,5,9.2C5.5,9,4.8,8.6,4.6,8.7c0.1-0.2,0.1-0.1,0-0.2c0,0.1-0.1,0.2-0.2,0.1c0.1-0.1,0.1-0.2,0-0.3
				c0,0-0.1,0.2-0.2,0.1c0,0-0.6-0.2-0.5,0.1C3.5,8.5,3,8,2.8,7.8C2.6,7.6,2.6,7.5,2.2,7.5S0.8,8,1.4,8.5C1,8.7,1.1,8.3,0.6,8.5
				c0,0.1,0.1,0.1,0.1,0.1c-0.3,0,0.1,0.3,0.4,0.2C1,9.2,0.7,9.1,0.5,9.3c-0.1,0-0.4,0.5-0.1,0.5c-0.1,0.2,0,0.4,0.2,0.3
				C0.8,10.5,0,10.5,0,10.8c0.3-0.2,0.6-0.3,0.9-0.4c0.3-0.2,0.3-0.3,0.5-0.4c0,0.1-0.1,0.2-0.2,0.3c0.2,0,0.4-0.3,0.4-0.3
				c0.3-0.1,0.2,0,0.4,0c0.2,0.2,0.3,0.4,0.4,0.5c0.1,0.1,0.1,0.7,0.3,0.4V11c0-0.1,0-0.3,0-0.4c0.2,0.1,0.1,0.7,0.1,0.9
				c-0.1,0,0.4,0.6,0.4,0.9c-0.2,0-0.2,0-0.3,0c0,0.5-0.3,1-0.2,1.5c0,0.2,0.7,1.2,0.4,1.2c0.2,0.2,0.3,0.4,0.4,0.5
				c0-0.3-0.4-0.6-0.4-1c0.2,0.1,0.4,0.6,0.5,0.8C4,15.8,4,16,4.3,16.2c0.4,0.2,0.5,0.2,0.8,0.4C5.6,16.7,5.7,17.1,6,17.2z M6.8,10
				C6.9,10,6.9,10.1,6.8,10C6.8,10.1,6.8,10.1,6.8,10z"/>
		</g>
		<g>
			<path class="st0" d="M8.3,8.7c0.2,0,0.4,0.3,0.2,0.4c0.1,0,0.4-0.1,0.3,0.2c0-0.1,0.3,0.2,0,0.3c0.4,0.2,0,0,0,0.2
				c0,0.1,0.2,0.4,0.4,0.4c-0.1,0.1-0.2,0.2-0.3,0.3c-0.2-0.1-0.1-0.3-0.2-0.3c-0.2,0,0.1,0.1-0.2,0c0.1,0.1,0.3,0.4,0.3,0.4
				c-0.2,0.4-0.1-0.3-0.4-0.1c0.1,0.1,0.1,0.2,0.2,0.3c-0.3-0.1-0.3-0.4-0.4-0.4c-0.1,0-0.4-0.1-0.4-0.2c0-0.2,0.4-0.1,0.4-0.1
				c0-0.2,0.2-0.1,0.2-0.3c0-0.1-0.1-0.2-0.1-0.3s0,0-0.1-0.2c0,0,0,0,0.1,0C8.2,9.3,8.1,9.1,8,9v0.1C7.9,9.1,7.7,9,7.9,9.2
				C7.7,9.3,7.3,9.3,7.3,9c0,0,0.2,0.1,0.2,0C7,8.7,7.7,8.2,7.9,8.4c-0.1,0-0.1,0-0.1,0.1c0.3,0,0.6-0.1,0.6,0.3
				C8.2,8.7,8.1,8.7,8,8.8c0.1,0,0.2,0.1,0.3,0.1C8.2,8.8,8.2,8.8,8.3,8.7z M7.6,8.7c0.1,0,0.2-0.1,0-0.2C7.6,8.6,7.6,8.7,7.6,8.7z"
				/>
		</g>
		<g>
			<path class="st0" d="M5.6,8.7C5.5,8.5,5.2,8.6,5.1,8.4c0.1,0,0.2-0.1,0.2-0.1C5.1,8.2,5.1,8.2,5.3,8C5.1,8.1,5,8.4,4.9,8.2
				C4.8,8.1,5,7.7,5.2,7.6s0.3-0.1,0.5,0.2c0,0,0.2,0.7,0.3,0.4c0.1,0.1,0,0.3,0,0.4c0.1-0.1,0.1-0.4,0.4-0.4C6.4,8,6.5,8,6.6,8.1
				c0.1,0.2-0.2,0.1-0.2,0.3c-0.1,0.4,0,0.4,0,0.7C6.2,9.1,6,9.3,5.6,9.2C5.2,9.1,5.4,9.2,5.3,9C5,8.6,5.1,8.6,5.6,8.7z"/>
		</g>
		<g>
			<path class="st0" d="M6.7,7.6C6.6,7.7,6,7.8,5.9,7.6c0.1,0,0.2,0,0.2-0.1c-0.1,0.1-0.2,0-0.3,0c0.1,0,0.1,0,0.2,0
				C5.8,7.3,6.2,7.4,6,7.1C5.8,7.3,5.6,7.2,5.7,7s0.4-0.1,0.5-0.2C6.4,7,6.2,7.1,6,7.2c0-0.1,0.4,0.4,0.4,0.4c0-0.2,0.1-0.4,0.3-0.3
				C6.6,7.4,6.6,7.5,6.7,7.6C6.8,7.4,6.7,7.6,6.7,7.6z"/>
		</g>
		<g>
			<path class="st0" d="M6.9,8.6c-0.1,0.1-0.2,0-0.2,0.1c-0.1,0-0.3-0.4-0.2-0.4c0.1,0,0.1,0,0.2,0.1c0.1-0.1,0.1-0.1,0-0.2
				c0,0,0.3-0.1,0.4-0.1C7.1,8.3,6.8,8.4,6.9,8.6z"/>
		</g>
		<g>
			<path class="st0" d="M7.1,8.4c0,0.1,0,0.3-0.1,0.2C6.8,8.5,7.2,8.1,7.4,8.2C7.6,8.4,7.4,8.5,7.1,8.4z"/>
		</g>
		<g>
			<path class="st0" d="M6.9,7.8c0.2-0.1,0.2-0.2,0-0.2C7,7.6,7,7.5,7,7.5c-0.2,0-0.1,0-0.1-0.1c0.1,0,0.2,0.2,0.3,0.3
				c0-0.1,0-0.1,0-0.1C7.4,7.4,7.4,8,6.9,7.8z"/>
		</g>
		<g>
			<path class="st0" d="M7.3,6.6c0.4-0.4,0.4,0.6,0.2,0.5c0.1,0-0.3-0.3-0.2-0.3C7.3,6.9,7.5,6.6,7.3,6.6z"/>
		</g>
		<g>
			<path class="st0" d="M6.1,15.8C6,15.8,6,15.8,6.1,15.8C5.9,15.6,6.9,16,7,16.1C6.8,16,6.1,15.7,6.1,15.8z"/>
		</g>
		<g>
			<path class="st0" d="M7,16c0.2,0,0.4,0,0.4,0.2c-0.3,0-0.4,0.1-0.6,0C6.9,16,7.2,16.3,7,16z"/>
		</g>
		<g>
			<path class="st0" d="M6.3,9.2c0.1,0,0.2-0.1,0.2-0.2C6.8,9.3,6.6,9.4,6.3,9.2z"/>
		</g>
		<g>
			<path class="st0" d="M3,12.4c-0.1-0.1-0.4-0.3-0.4-0.4C2.8,12.1,3,12.1,3,12.4z"/>
		</g>
		<g>
			<path class="st0" d="M6.8,6.9C6.7,7,6.5,7.1,6.5,6.8C6.6,6.8,6.7,6.8,6.8,6.9z"/>
		</g>
		<g>
			<path class="st0" d="M7.7,6.8c0.2,0.3-0.1,0.4-0.1,0.3C7.6,7.1,7.6,6.9,7.7,6.8z"/>
		</g>
		<g>
			<path class="st0" d="M7.4,8.1"/>
		</g>
		<g>
			<path class="st0" d="M8.3,9.8"/>
		</g>
		<g>
			<g>
				<path class="st0" d="M10.2,6.6c0.2,0,0.3-0.1,0.4-0.1c0.1,0,0,0.4,0.1,0.1c0,0.1,0,0.2,0.1,0.2c0.2-0.7,0.2,0,0.4,0
					c-0.1-0.1-0.1-0.3-0.1-0.4c0.1,0.1,0.2,0,0.1-0.1c0.1-0.1,0.4-0.1,0.4-0.1c0.2,0,0.5-0.3,0.7,0.1c-0.1,0-0.2,0-0.2,0
					c0.2,0.1,0.3-0.1,0.4,0.2c0.1,0.3-0.3,0.2-0.5,0.2c0.1,0,0.4,0,0.3,0.2c0,0,0.5-0.1,0.1,0.2C12.5,7.2,12.9,6.7,13,7
					c0.1,0.2-0.2,0.3-0.4,0.3c0.2,0.1-0.4,0.6-0.2,0.8h-0.1c0.1,0.1,0.2,0.1,0.1,0.2c-0.1,0-0.2,0-0.2,0.2c0.2,0.1,0.1,0.1,0.2,0.3
					c0,0.1-0.1-0.2-0.1,0.1c0,0,0.3,0.1-0.1,0.1c0.3,0.3-0.1,0-0.2,0.1c0.2,0.1,0.3,0.2,0.2,0.3c-0.1-0.2-0.1-0.2-0.2-0.2
					c0.1,0.2,0.2,0.3,0.3,0.5c-0.4,0-0.4,0-0.5-0.2c0.1,0.2,0.1,0.2-0.1,0.3c0.7,0.2-0.2,0.3-0.4,0.4c-0.2,0.1-0.7,0.4-0.8,0.5
					c0,0-0.4,0.6-0.4,0.7c-0.4-0.1-0.4-0.6-0.5-0.6c0.2-0.2-0.3-0.6,0.3-0.7c-0.3-0.2,0,0,0-0.2c0.1,0,0.1,0,0.1-0.2
					c-0.1,0-0.2-0.1-0.3-0.2c0.1,0,0.2,0.1,0.3,0.1c0-0.2-0.1-0.2,0-0.3c-0.3-0.1,0.1,0.2-0.3,0c0.3-0.1,0.2-0.9,0-1
					c-0.2-0.2-0.4,0-0.5-0.1C9.1,8.1,9,7.9,9.3,7.9C9.2,7.4,9.1,7.7,9.5,7.5C9.6,7.4,10,7.4,9.6,7.2C9.9,6.9,10.2,6.8,10.2,6.6z"/>
			</g>
			<g>
				<path class="st0" d="M11.9,10.8c0.1-0.2,0-0.1-0.1-0.2c0.2,0,0.2,0,0-0.1c0.1-0.1,0.1-0.1,0.2-0.1c0.1,0.2,0.6-0.1,0.6,0.2
					C12.8,10.9,12.2,10.9,11.9,10.8z"/>
			</g>
			<g>
				<path class="st0" d="M9.8,9.7c-0.1,0-0.1-0.2-0.1-0.2C9.9,9.5,10.1,9.7,9.8,9.7z"/>
			</g>
		</g>
		<g>
			<path class="st0" d="M6.6,6.6c0.1,0,0.4-0.1,0.3,0.1C6.8,6.8,6.7,6.8,6.6,6.6z"/>
		</g>
		<g>
			<path class="st0" d="M6,7.3c-0.2,0.1-0.2,0.1-0.2,0C5.8,7.3,5.9,7.2,6,7.3z"/>
		</g>
		<g>
			<path class="st0" d="M6.7,7.6"/>
		</g>
		<g>
			<path class="st0" d="M27.8,8c0-0.1,0.4,0,0.4,0C28,7.8,28.1,7.6,28,7.5c-0.4-0.3-0.2,0.1-0.3,0.2c-0.4-0.4-1.2-0.4-1.6-0.3
				c0.1,0.1,0.2,0.2,0.2,0.3C26.5,7.8,26,7.5,26,7.5c-0.1,0.3-0.4,0.1-0.4,0.4c-0.2-0.1-0.4-0.3-0.4-0.3c-0.3,0-0.4,0.1-0.5,0.1
				s-0.2-0.1-0.3-0.2c-0.2-0.1-0.5,0.1-0.8,0c0.2,0.2,0,0,0,0.1c0,0.2,0.1,0.3,0.1,0.3c-0.1,0-0.2,0-0.1,0.1c-0.2,0-0.3,0-0.4,0
				c0,0.1,0.1,0.2,0.1,0.3c-0.1,0-0.4-0.2-0.4-0.2H23C22.9,8,22.2,7.6,22.5,8c-0.3-0.1-1.1-0.1-1.2,0c0,0.1,0,0.4-0.1,0.3
				c0.1-0.2,0.3-0.6,0-0.7c0.2,0-0.3-0.2-0.3-0.2c-0.2-0.1-0.2,0.2-0.3,0.2c0-0.3-0.6-0.4-0.4,0.2C20,7.8,20.1,8,19.9,8
				c0,0-0.1-0.1-0.3,0l-0.3,0.4c0.4,0.2-0.3-0.1,0.3,0.2c0,0.1-0.4,0-0.4,0.2c-0.1,0.3,0.3,0.3,0.4,0.4c-0.1,0-0.5-0.2-0.5-0.1
				c0.1,0,0.1,0.1,0.1,0.1c-0.1,0-0.1,0-0.2,0c0,0.1,0.1,0.1,0.1,0.2C19,9.3,19,9,18.9,8.9c-0.1,0.2,0,0.4,0.1,0.5
				c0,0.1,0,0.2,0.1,0.2c0.3,0,0.4-0.2,0.4,0c-0.4-0.1-0.1-0.2-0.3,0.1c0,0-0.1,0.7-0.3,0.4c0.3,0.1-0.1-1.4-0.4-1.3
				c0.1,0.2-0.1,0.4,0,0.6c0,0.1,0.3,0.3,0.3,0.4c-0.2-0.1-0.6-0.4-0.8-0.4c0,0.1,0.3,0.3,0.3,0.3c-0.2,0.1-0.5,0.2-0.6,0.1
				c-0.1,0.1-0.4,0.4-0.5,0.4l0.1-0.1c0-0.1-0.1-0.2-0.2-0.1c0,0.2,0.1,0.3,0.1,0.4c-0.4-0.2-0.3,0-0.4,0.2
				c-0.1,0.1-0.2,0.1-0.3-0.1c0,0.1,0,0.2,0.2,0.2c-0.2,0.1-0.4-0.4-0.5-0.4c0.4,0.2,1,0.1,0.4-0.4c-0.3-0.2-0.4-0.1-0.6-0.2
				c0.5-0.3-0.6-0.1-0.6-0.1c0.1,0.1-0.2,0.2-0.3,0.2c0,0.1,0.1,0.2-0.1,0.2c0,0.1,0.1,0.1,0.2,0c-0.1,0.1-0.5,0.8-0.4,0.9
				c-0.3-0.1-0.4,0.5-0.3,0.6c-0.1,0-0.1,0-0.1,0c0.3,0.2,0.3,0.1,0.4-0.1c0,0.1,0.2,0.4,0.2,0.5c-0.1-0.1-0.1,0-0.2,0
				c0.3,0.2,0.4-0.2,0.4-0.4c0.1-0.4,0-0.4,0.2-0.8c0.1-0.2,0-0.3,0.2-0.4c0.3-0.1,0,0.3,0,0.3c0,0.2-0.3,0.3-0.1,0.5
				s0.4-0.1,0.6,0.1c-0.1,0.1-0.4,0.1-0.4,0.2s0.2,0.2,0,0.4c-0.3-0.3-0.2,0.2,0,0.3c-0.1,0.1-0.7,0.1-0.7,0.1
				c-0.2,0-0.5-0.2-0.2-0.1c-0.1-0.1-0.1-0.4-0.2-0.4c-0.2,0,0,0.4-0.1,0.5c0,0-0.4,0.3-0.5,0.4c-0.1,0.1-0.1,0.3-0.3,0.2
				c0,0.2-0.1,0.1-0.2,0.1c0,0.2,0.4,0.2,0.3,0.5c-0.1,0.2-0.2,0-0.4,0.1c-0.4,0.2-0.2-0.2-0.4,0.2s0.1,0.6,0.4,0.6
				c0.5-0.1,0.4-0.7,0.9-0.8c0.3,0,0.1-0.1,0.4,0c0.1,0,0.4,0.3,0.4,0.4c0.1,0.4-0.2,0.1-0.3,0.3c0.4,0.3,0.3,0,0.4-0.3
				c0,0,0.1,0.1,0.1,0c-0.1-0.1-0.8-0.5-0.5-0.6c0.1,0.2,0.4,0.2,0.5,0.4c0.2,0.3,0.1,0.5,0.4,0.6c0-0.2,0-0.1,0.1-0.2
				c-0.1-0.1-0.2-0.2-0.2-0.3c0.2,0.2,0.3-0.2,0.4,0.2c-0.1,0,0.1,0.3,0.3,0.4c0.1,0,0.4-0.1,0.5-0.1c0.2,0.2-0.1,0.4-0.1,0.4
				s0.1,0.1,0.1,0.2c0.1,0.3,0.1,0.4,0.2,0.6c0.1,0.2,0.3,0.4,0.4,0.6c0.3,0.4,0.1,0.7,0.7,0.4c0.3-0.1,0.5-0.3,0.7-0.4
				c0.5-0.4,0.1-0.4-0.1-0.8c-0.2,0.4-0.4,0.1-0.4,0c-0.1,0.2-0.4-0.3-0.2-0.4c-0.1,0,0.7,0.4,0.8,0.4c0.3,0.1,0.7,0,0.9,0.1
				c0.3,0.1,0.3,0.6,0.6,0.4c0.1,0.4,0.3,1,0.5,1.3c0.3-0.3,0.3-0.6,0.4-0.9c0.2-0.3,0.4-0.4,0.7-0.6c0.1,0.1,0.2,0.3,0.3,0.4
				c0,0.1,0.1,0.3,0.1,0.3c0.2,0.1,0.2-0.1,0.3,0c0.2,0.1,0.1,0.7,0.2,0.8c0.1,0.3,0.4,0.5,0.5,0.7c0.1-0.2-0.3-0.5-0.4-0.6
				c-0.1-0.3-0.2-0.3-0.1-0.6c0.3,0.1,0.4,0.3,0.4,0.4c0.4-0.4,0.4-0.4,0.1-0.8c-0.1-0.3-0.2-0.1-0.1-0.4c0.1-0.2,0.3-0.1,0.4,0
				c0,0-0.2,0.3,0,0.2c0.3,0,0-0.3,0-0.3c0.2-0.2,0.4-0.2,0.7-0.4c0.3-0.3,0.2-0.8,0.2-0.9c-0.1-0.1-0.3-0.3-0.3-0.4
				c0-0.2,0.3-0.3,0.3-0.3c-0.1-0.2-0.4,0.1-0.4-0.1c-0.1-0.1,0-0.4,0.3-0.4c0,0.1-0.1,0.2,0.1,0.3c0.2-0.3,0.4,0.2,0.4,0.3
				c0.1,0.2,0,0.4,0.3,0.3c0.3-0.1-0.2-0.4-0.2-0.5l0.1-0.4c0.2-0.2,0.3-0.1,0.4-0.2c0.4-0.4,0.2-1,0.2-1.4
				c-0.2-0.3-0.4-0.4-0.7-0.4c0.1-0.4,0.2-0.8,0.6-1c0.3-0.1,0.4,0,0.6-0.2c-0.3-0.3-0.1-0.5,0.2-0.6c0,0.1,0,0.2,0.2,0.2
				c0.1-0.1,0-0.4,0.1-0.4c-0.1,0.2,0,0.4,0,0.6s-0.1,0.4-0.1,0.4c0,0.4,0.2,0.9,0.5,1.2c0.3-0.3,0-0.9,0.2-1
				c-0.1-0.1-0.2-0.3-0.3-0.4v0.1c0-0.1-0.2-0.7,0.1-0.5c0-0.3,0.2-0.1,0.3-0.1c0-0.2,0.1-0.8,0.4-0.7c0-0.3-0.4-0.4-0.5-0.5
				c0.4,0.2,0-0.4,0-0.4C27.8,8.1,27.8,8.2,27.8,8z M17.2,13.7c-0.2,0-0.4-0.1-0.5-0.1s-0.4,0.2-0.4,0.1c-0.2-0.2,0.2-0.6,0.4-0.5
				c-0.2,0.2,0.3,0.1,0.3,0.1c-0.1-0.1-0.2,0-0.2-0.1c0.1-0.1,0.2-0.1,0.4-0.2c0.1,0.3-0.2,0.1,0,0.3C17,13.2,17.8,13.8,17.2,13.7z
				 M18.1,14.1c-0.1-0.3,0-0.2-0.1-0.4c0-0.1-0.3-0.3-0.2-0.4c0.1-0.3,0.4-0.4,0.5-0.1c-0.4,0,0,0.1-0.2,0.1
				c0.3,0.3,0.4,0.5,0.4,0.9C18.5,14.3,18.3,14.3,18.1,14.1z"/>
		</g>
		<g>
			<path class="st0" d="M19.9,9.2c-0.1-0.1-0.2-0.1-0.1-0.2C19.8,9,19.8,9.1,19.9,9.2z"/>
		</g>
		<g>
			<path class="st0" d="M27.7,18.7c0.1,0.1,0.2,0.2,0.3,0.4c-0.3,0-0.3-0.3-0.5-0.3c0,0-0.3,0.1-0.2,0.2c-0.1,0-0.4,0-0.5-0.1
				s0.1-0.1,0.1-0.1c0-0.3-0.4-0.3-0.5-0.4s0-0.1-0.2-0.3c0.1-0.3,0.4,0.2,0.4,0.2C26.9,18,27.8,18.5,27.7,18.7z"/>
		</g>
		<g>
			<path class="st0" d="M25,17.4c-0.1,0.1-0.3,0.3,0,0.4c-0.3,0.1-0.2,0.4-0.4,0.4c-0.3,0.1-0.6-0.3-0.5-0.5c0,0.1,0.4-0.3,0.4-0.3
				C24.8,17.3,24.7,17.2,25,17.4z"/>
		</g>
		<g>
			<path class="st0" d="M23.8,18.5c-0.3,0.1-0.9-0.9-1-1.1c0.4,0.2,0.8,0.4,1,0.8c0.1,0.2,0,0.2,0.2,0.4c0,0,0.7,0.2,0.4,0.1
				c0.2,0.2,0.4,0.1,0.6,0.2C24.8,18.9,23.6,18.8,23.8,18.5z"/>
		</g>
		<g>
			<path class="st0" d="M17.4,8.4c0.2-0.1,0.3-0.3,0.4-0.4c0.4-0.2,0.3-0.1,0,0.3c-0.1,0.2-0.2,0.2-0.2,0.4c0,0.1-0.1,0.2,0,0.3
				c0,0.1,0.3,0.4,0.3,0.4C17.2,9.6,17.5,8.8,17.4,8.4z"/>
		</g>
		<g>
			<path class="st0" d="M26,14.4c0-0.1-0.1-0.1-0.1-0.2c0,0,0.1,0.4,0,0.4c-0.5-0.1,0.3-0.6,0.4-0.8c0.1,0.2,0.2-0.5,0.3-0.5
				c0.2,0.3,0.2,0.6,0.1,0.8l-0.3,0.2c-0.1,0-0.1-0.1-0.2,0C26.2,14.4,26,14.3,26,14.4z"/>
		</g>
		<g>
			<path class="st0" d="M14.9,7.9c0,0.2-0.1,0.4-0.1,0.5c-0.2-0.1-0.4-0.4-0.4-0.6c0-0.4,0.2-0.1,0.2-0.4C14.9,7.5,15,7.9,15.3,8
				C15.1,8.4,15.1,8,14.9,7.9z"/>
		</g>
		<g>
			<path class="st0" d="M13.9,12.7c-0.2,0-0.4,0.1-0.5,0.1c0-0.1,0-0.2,0.1-0.2c-0.1,0-0.1-0.1-0.2-0.1c0.3-0.2-0.2-0.9,0.2-0.9
				c0.1,0,0.3,0.4,0.3,0.5C13.7,12.4,13.8,12.5,13.9,12.7z"/>
		</g>
		<g>
			<path class="st0" d="M19.9,6.9c-0.2,0.3-0.9-0.2-0.7-0.6C19.4,6.5,19.7,6.6,19.9,6.9z"/>
		</g>
		<g>
			<path class="st0" d="M23.1,7.1c-0.3,0-0.6-0.5-0.1-0.3V6.7c0-0.1,0.2,0.1,0.2,0.1c-0.1-0.3,0.2,0,0.2,0.1
				C23.3,7,23.1,6.9,23.1,7.1z"/>
		</g>
		<g>
			<path class="st0" d="M25.2,18.1c0,0.1,0.1,0.2,0.1,0.2c-0.3,0.2-0.2-0.4-0.3,0.1c-0.2,0-0.1-0.5,0-0.6s0.4-0.1,0.5-0.1
				C25.4,18,25,17.6,25.1,18c0.1-0.1,0.2-0.1,0.3-0.1C25.4,18.1,25.3,18.1,25.2,18.1z"/>
		</g>
		<g>
			<path class="st0" d="M26,11.6c0-0.2,0-0.3-0.1-0.4c0.1,0,0.4,0.7,0.5,0.8c-0.3,0,0,0.4,0.1,0.4c-0.1,0-0.1,0-0.1,0.1
				C26.1,12.4,26.1,11.8,26,11.6z"/>
		</g>
		<g>
			<path class="st0" d="M15,7.4c0.6,0.2-0.1,0.6-0.2,0C15,7.5,15.1,7.5,15,7.4z"/>
		</g>
		<g>
			<path class="st0" d="M26.3,13.1L26.3,13.1c-0.1,0.3,0-0.4,0-0.4c0.2,0.1,0.4,0.2,0.4,0.3c-0.1,0-0.2,0.1-0.2,0.2
				C26.5,13,26.4,13,26.3,13.1z"/>
		</g>
		<g>
			<path class="st0" d="M12.9,12.2c0.1,0,0.5-0.3,0.4,0.3c-0.1,0.1-0.2,0.2-0.3,0.1C12.8,12.5,13,12.3,12.9,12.2z"/>
		</g>
		<g>
			<path class="st0" d="M25.5,16.7l-0.3-0.1c-0.1-0.1-0.3-0.5,0-0.4c0.3,0,0,0.3,0.1,0.4C25.2,16.5,25.4,16.6,25.5,16.7z"/>
		</g>
		<g>
			<path class="st0" d="M20,7.1c-0.2-0.1-0.1-0.4-0.1-0.4C20.2,6.8,20.3,6.9,20,7.1z"/>
		</g>
		<g>
			<path class="st0" d="M25.7,17.4c-0.2,0-0.1-0.3-0.4-0.2c-0.1-0.2,0.3-0.1,0.3-0.3C25.9,17.1,25.7,17.2,25.7,17.4z"/>
		</g>
		<g>
			<path class="st0" d="M21.4,17"/>
		</g>
		<g>
			<path class="st0" d="M25.1,15.7c-0.2-0.1-0.2-0.3,0-0.4C25.1,15.4,25.1,15.5,25.1,15.7z"/>
		</g>
		<g>
			<path class="st0" d="M23.6,7.4"/>
		</g>
		<g>
			<path class="st0" d="M25.8,18.9c0.2-0.1-0.3,0.3-0.4,0.1C25.4,18.8,25.7,18.8,25.8,18.9z"/>
		</g>
		<g>
			<path class="st0" d="M25.4,16.9c0,0.1,0,0.1,0,0.2C25.3,17.1,25.2,16.9,25.4,16.9C25.3,16.8,25.4,16.9,25.4,16.9z"/>
		</g>
		<g>
			<path class="st0" d="M26,17.9c0,0.1-0.1,0.1-0.1,0.2C25.8,18,25.8,17.9,26,17.9C25.9,17.8,26,17.8,26,17.9z"/>
		</g>
		<g>
			<path class="st0" d="M17.2,9.8c0.1-0.1,0.1-0.1,0.2,0C17.4,9.9,17.3,9.9,17.2,9.8z"/>
		</g>
		<g>
			<path class="st0" d="M25.1,18.8c0.1,0,0.2,0,0.3,0c-0.1,0.1,0,0,0.1,0C25.2,18.9,25.1,18.9,25.1,18.8z"/>
		</g>
		<g>
			<path class="st0" d="M21.5,7.8c-0.1,0-0.1,0-0.2-0.1C21.5,7.7,21.5,7.7,21.5,7.8z"/>
		</g>
		<g>
			<path class="st0" d="M25.5,16.7c0.1,0,0.2,0.1,0.2,0.2C25.6,16.7,25.5,16.6,25.5,16.7z"/>
		</g>
		<g>
			<path class="st0" d="M25.1,16.6c0.1,0,0.1,0,0.1,0.2C25.1,16.7,25.1,16.7,25.1,16.6z"/>
		</g>
		<g>
			<path class="st0" d="M25.1,19C25,19,25,18.9,25,18.9C25.1,18.9,25.2,18.9,25.1,19z"/>
		</g>
		<g>
			<path class="st0" d="M25.8,18.3c-0.1,0-0.1,0-0.2,0C25.7,18.2,25.8,18.2,25.8,18.3z"/>
		</g>
		<g>
			<path class="st0" d="M23.7,18.1C23.8,18.1,23.9,18.2,23.7,18.1C23.8,18.2,23.8,18.1,23.7,18.1z"/>
		</g>
		<g>
			<path class="st0" d="M23.3,7.2c0.1,0,0.1,0.1,0.1,0.2C23.3,7.2,23.2,7.2,23.3,7.2z"/>
		</g>
		<g>
			<path class="st0" d="M12.5,8.7C12.6,8.6,12.7,8.7,12.5,8.7C12.5,8.7,12.5,8.6,12.5,8.7z"/>
		</g>
		<g>
			<path class="st0" d="M15.3,11.9C15.2,11.8,15.2,11.8,15.3,11.9C15.3,11.8,15.3,11.8,15.3,11.9z"/>
		</g>
		<g>
			<path class="st0" d="M15.5,11.6L15.5,11.6C15.5,11.7,15.5,11.7,15.5,11.6z"/>
		</g>
		<g>
			<path class="st0" d="M14.6,13.7c0.1,0.1,0.1,0.2,0,0.3C14.5,13.9,14.5,13.9,14.6,13.7z"/>
		</g>
		<g>
			<path class="st0" d="M16.7,14.5c0.1,0,0.1-0.1,0.2,0C16.8,14.6,16.7,14.6,16.7,14.5z"/>
		</g>
		<g>
			<path class="st0" d="M14.6,13.7c0-0.1,0-0.1,0-0.2C14.6,13.7,14.6,13.7,14.6,13.7z"/>
		</g>
		<g>
			<path class="st0" d="M16.1,14.5c-0.1,0-0.2,0-0.3-0.1C15.9,14.4,16.1,14.5,16.1,14.5z"/>
		</g>
	</g>
	<g>
		<circle class="st1" cx="9.7" cy="20" r="2"/>
	</g>
	<g>
		<circle class="st2" cx="24.7" cy="9" r="3"/>
	</g>
	<g>
		<circle class="st3" cx="17.7" cy="15" r="4"/>
	</g>
	<g>
		<circle class="st4" cx="5.7" cy="11" r="3"/>
	</g>
	<g>
		<circle class="st5" cx="26.7" cy="19" r="2"/>
	</g>
</g>
</svg>
