<?xml version="1.0" encoding="utf-8"?>
<!-- Generator: Adobe Illustrator 24.1.0, SVG Export Plug-In . SVG Version: 6.00 Build 0)  -->
<svg version="1.1" id="Layer_1" xmlns="http://www.w3.org/2000/svg" xmlns:xlink="http://www.w3.org/1999/xlink" x="0px" y="0px"
	 viewBox="0 0 30 30" style="enable-background:new 0 0 30 30;" xml:space="preserve">
<style type="text/css">
	.st0{fill:#6080c0;}
	.st1{fill:#BD1E1E;}
	.st2{fill:#222240;}
	.st3{fill:#2050be;}
	.st4{fill:#81C45B;}
</style>
<path class="st0" d="M10.9,18.5L10.9,18.5c-0.2-0.1-0.2-0.2-0.3-0.2c-0.1-0.1-0.2-0.1-0.3-0.1h-0.2H10c0,0,0-0.1-0.1-0.1
	S9.7,18,9.6,18H9.5c0,0,0-0.1,0.1-0.1c0.1-0.1,0.1-0.1,0-0.2c0,0,0-0.1-0.1-0.1c0-0.1-0.1-0.1-0.1-0.2c-0.1-0.1-0.2-0.2-0.4-0.1
	c-0.1,0-0.1,0-0.2-0.1c-0.1-0.1-0.3-0.3-0.4-0.4h0.1H8.3c-0.1,0-0.1,0.1-0.2,0C8.1,17,8,17,8,16.9c0,0-0.1,0-0.1-0.1H7.8v0.1H7.6
	c0,0,0.1,0,0.1-0.1s-0.1-0.1-0.1,0c-0.1,0.1-0.2,0.1-0.3,0.1c-0.1,0.1-0.1,0.2-0.2,0.3v0.1c0,0.1,0,0.1-0.1,0.2v0.4l0,0
	C7,18,6.9,18,6.9,18v0.2c0,0.1,0,0.1,0.1,0.2c-0.1,0-0.1,0.1-0.1,0.1v0.2L7.2,19c0,0,0,0.1,0.1,0.1c0.1,0.1,0.1,0.2,0.2,0.3v0.1
	c0.1,0.1,0.2,0.2,0.3,0.2c0.1,0.1,0.2,0.1,0.3,0.2v0.8c0,0.2-0.1,0.4,0,0.5v0.3c0,0.1,0,0.2-0.1,0.3v0.3c0,0.1,0.1,0.2,0,0.3
	s0,0.2,0.1,0.3V23H7.9v0.2H7.8c0,0.1,0,0.1,0.1,0.2v0.2H7.8v0.2C7.9,23.4,8,23.5,8,23.6s0.1,0.2,0.2,0.3h0.1c-0.1,0-0.2-0.1-0.2-0.1
	l0.1,0.1h0.1c0.1,0,0.1,0,0.2,0.1c0,0,0.1,0.1,0.1,0c-0.1,0,0,0,0.1,0H8.6c0.1,0,0.1,0,0.2,0.1V24H9c-0.1,0-0.1-0.1-0.2-0.1
	c-0.1,0-0.1-0.1-0.1-0.1c0-0.1-0.1-0.1-0.1-0.1h0.1c-0.1-0.1-0.1-0.2-0.1-0.3l0.1-0.1c0-0.1,0.1-0.2,0.1-0.2c0-0.1,0-0.2-0.1-0.2
	S8.6,23,8.6,23c0-0.1,0.1-0.1,0.1-0.1c0.1,0,0.1-0.1,0.1-0.1v-0.1v-0.1h0.1c0,0,0-0.1-0.1-0.1H8.7v-0.2h0.1c0.1,0,0.1,0,0.1-0.1V22
	c0.1,0.1,0.3,0,0.4,0c0.1-0.1,0.1-0.2,0-0.3c0.1-0.1,0-0.1,0-0.1H9.1c0.1,0,0.2,0,0.3,0.1h0.1c0.1-0.1,0.2-0.2,0.2-0.3v-0.1
	c0-0.1,0.1-0.1,0.2-0.1c0-0.1,0.1-0.1,0.1-0.2v0v-0.2c0.1-0.1,0.2-0.2,0.3-0.2c0-0.1,0.1-0.1,0.2-0.1h0.1l0.1-0.1
	c0-0.1,0-0.1,0.1-0.1c0-0.1,0.1-0.2,0.1-0.4v-0.4v-0.1c0.1,0,0.1,0,0.1-0.1c0,0,0-0.1,0.1-0.1C10.9,18.9,11,18.7,10.9,18.5z"/>
<path class="st1" d="M18.8,16.9h-0.2c-0.1,0-0.2,0-0.3,0.1h-0.2v-0.1l-0.3-0.3c-0.1,0-0.1-0.1-0.1-0.2s-0.1-0.2-0.1-0.2l-0.1-0.1
	c0-0.1,0-0.3-0.2-0.3c0-0.1-0.1-0.2-0.1-0.3v-0.1c-0.1,0-0.2,0-0.2-0.2v-0.1L16.9,15c0-0.1-0.1-0.2-0.2-0.3c-0.1,0.1-0.2,0-0.3,0
	s-0.2-0.1-0.3-0.1c0,0-0.1,0-0.1-0.1c-0.1,0-0.2-0.1-0.3,0c0,0-0.1,0.1,0,0.1c0,0.1,0,0.1-0.1,0.1h-0.1c-0.1,0-0.2-0.1-0.2-0.1
	c0-0.1-0.2-0.1-0.3-0.2c-0.1,0-0.2,0-0.2-0.1v-0.1c0.1-0.1,0.1-0.1,0-0.2v-0.1c-0.1,0-0.1-0.1-0.2,0h-0.5c-0.1,0-0.2,0.1-0.4,0.1
	l-0.1,0.1h-0.2c0,0.1-0.1,0.1-0.2,0.1h-0.1L13,14.3c-0.1,0-0.2,0.2-0.2,0.3c0,0.2-0.1,0.3-0.2,0.3c-0.1,0-0.2,0.2-0.3,0.2
	c-0.1,0.1-0.2,0.3-0.2,0.4v0.1c0.1,0.1,0,0.1,0.1,0.2c0,0.2,0,0.3-0.1,0.4v0.3c0.1,0.1,0.2,0.2,0.3,0.2v0.1c0,0.1,0.1,0.2,0.1,0.2
	c0.1,0.1,0.3,0.2,0.4,0.3h0.2c0.1-0.1,0.3-0.1,0.4,0h0.1c0.1,0,0.3-0.1,0.4-0.1c0.1,0,0.2,0,0.2,0.1s0.1,0.1,0.2,0.1H15
	c0.1,0.1,0.1,0.2,0.1,0.3V18l0.1,0.1c0.1,0.1,0.2,0.2,0.2,0.3V19l-0.1,0.1c0,0.1,0,0.1-0.1,0.2v0.3c0,0.1,0.1,0.3,0.2,0.4v0.4
	c0,0.1,0,0.1,0.1,0.2s0.2,0.3,0.2,0.4v0.3c0.1,0.1,0.2,0.1,0.4,0.1h0.2c0.2,0,0.3,0,0.4-0.1L17,21l0.1-0.1c0.1-0.1,0.2-0.2,0.1-0.3
	v-0.1l0.1-0.1c0.1,0,0.2-0.1,0.1-0.3v-0.3c0,0,0.1,0,0.1-0.1c0.1-0.1,0.2-0.2,0.3-0.2c0.1-0.1,0.2-0.1,0.2-0.3V19
	c0.1-0.1,0.1-0.2,0.1-0.3v-0.2v-0.2c0-0.1,0.1-0.2,0.1-0.3l0.1-0.1l0.4-0.4l0.3-0.3c0.1-0.1,0.2-0.3,0.2-0.4
	C18.7,16.9,18.8,16.9,18.8,16.9C18.9,16.9,18.8,16.9,18.8,16.9z"/>
<path class="st1" d="M18.3,19.4c0.1-0.1,0.2-0.2,0.3-0.4c0.1,0,0.1,0.1,0.1,0.2v0.2c-0.1,0.2-0.1,0.4-0.2,0.5c0,0.1-0.1,0.2-0.1,0.3
	s-0.1,0.1-0.2,0.2H18c0-0.1,0-0.1,0-0.2c0-0.2,0-0.3,0.1-0.4v-0.1v-0.2C18.2,19.5,18.2,19.5,18.3,19.4z"/>
<path class="st0" d="M26.4,19.1c0.1,0,0.2,0.1,0.3,0.1H27c-0.1,0-0.1,0.1-0.1,0.1c-0.1,0.1,0,0.2,0,0.3c0.1,0.1,0.2,0.1,0.3,0.2h0.1
	c0-0.1,0.1-0.2,0.1-0.4c0-0.1,0.1-0.2,0.1-0.4c0.1,0.1,0.1,0.2,0.1,0.3c0,0,0,0.1,0.1,0.1s0.1,0.1,0.1,0.2v0.2c0,0.1,0,0.2,0.2,0.3
	c0.1,0,0.1,0.1,0.1,0.2c0,0,0,0.1,0.1,0.1c0,0,0.1,0,0,0.1v0.1c0.1,0.1,0.2,0.3,0.1,0.4c0.1,0.2,0,0.3-0.1,0.4
	c0,0.1-0.1,0.2-0.1,0.3c0,0-0.1,0-0.1,0.1s-0.1,0.1-0.1,0.2c-0.1,0.1-0.1,0.3-0.2,0.4v0.1c0,0.1,0,0.1-0.1,0.1s-0.1,0-0.2,0.1
	c-0.1,0-0.1,0.1-0.2,0.1c0-0.1,0-0.1-0.1-0.1s-0.1,0.1-0.2,0.1s-0.1-0.1-0.2-0.1c-0.1-0.1-0.1-0.1-0.1-0.3v-0.1c0,0,0-0.1-0.1-0.1
	h-0.1h-0.1c0-0.1,0.1-0.1,0.1-0.2l-0.2,0.2v-0.1c0-0.1-0.1-0.1-0.1-0.2c0-0.2-0.2-0.1-0.2-0.2c-0.1-0.1-0.2,0-0.3,0h-0.1
	c-0.1,0-0.2,0.1-0.3,0.1c0,0.1-0.1,0.1-0.2,0.1s-0.2,0-0.3,0.1c0,0-0.1,0.1-0.2,0.1S24.3,22,24.2,22v-0.1c0.1-0.1,0.1-0.2,0.1-0.3
	c0-0.2,0-0.3-0.1-0.4V21v-0.1c0-0.1-0.1-0.2,0-0.3c0-0.1,0.1-0.2,0.2-0.2C24.8,20,25,20,25.2,20c0.1,0,0.2-0.2,0.2-0.3
	c0,0,0-0.1,0.1-0.1h0.1v-0.1h0.1v-0.1l0.1-0.1c0,0,0.1,0,0.1-0.1H26c0,0.1,0.1,0,0.2,0.1v-0.1c-0.1-0.1,0-0.1,0-0.1
	c0-0.1,0.1-0.1,0.1-0.2l-0.3,0C26.2,19.1,26.3,19.1,26.4,19.1C26.3,19.1,26.3,19.2,26.4,19.1C26.4,19.2,26.4,19.2,26.4,19.1z
	 M29.4,22.8L29.4,22.8l0.1,0.2l-0.2,0.2v0.1c-0.1,0-0.2,0.1-0.2,0.2c-0.1,0.1-0.1,0.2-0.3,0.3h-0.1c-0.1,0-0.1-0.1-0.1-0.1v-0.1
	c0.1-0.1,0.1-0.2,0.2-0.3c0.1-0.1,0.2-0.1,0.3-0.2c0,0,0.1,0,0.1-0.1C29.3,23.1,29.3,23,29.4,22.8z M29.6,22.9
	C29.6,22.9,29.7,22.9,29.6,22.9c0.1-0.1,0.1-0.2,0.1-0.3c0,0,0-0.1-0.1-0.1h0.1c0-0.1,0.1-0.2,0.1-0.3c0-0.1,0-0.2-0.1-0.3v-0.1
	c0.1,0,0.1,0.1,0.1,0.2s0,0.1,0.1,0.2v0.1c0,0.1,0.1,0.1,0.1,0.1c0.1,0,0.1,0.1,0,0.1c0,0.1-0.1,0.1-0.1,0.1s0,0.1-0.1,0.1v0.1
	C29.8,22.9,29.7,22.9,29.6,22.9C29.7,23.1,29.7,23,29.6,22.9z M27,23.1C26.9,23.1,26.9,23,27,23.1l-0.1-0.4c0.1,0.1,0.2,0.1,0.3,0
	c0,0,0.1,0,0.1,0.1s0,0.1-0.1,0.2L27,23.1C27.1,23,27,23,27,23.1z M9.1,23.4C9.2,23.4,9.2,23.4,9.1,23.4h0.2H9.1L9.1,23.4z
	 M7.7,22.4c-0.1-0.1-0.1-0.1-0.1-0.2C7.7,22.4,7.7,22.4,7.7,22.4z"/>
<path class="st2" d="M10.6,6.8h-0.3l0.1,0.1c-0.1,0-0.1,0.1-0.2,0.1c0-0.1-0.1,0-0.2,0H9.9v0.1H9.8c-0.1,0.1-0.1,0.2-0.2,0
	c0,0.1-0.1,0.1-0.3,0v0.1l0,0c0,0.1,0.2,0,0.2,0.2c0,0-0.1,0-0.1-0.1l0.1,0.1c0,0.1,0,0.1-0.1,0.1l0.1,0.1H9.4l0.1,0.1H9.4
	c-0.1,0-0.1,0-0.2,0.1c0,0-0.1,0.1-0.2,0.1L9.1,8c0,0,0,0.1-0.1,0.1H8.9c0-0.1,0-0.1,0-0.2c-0.1,0-0.2,0-0.2-0.1v0.1
	C8.5,7.8,8.4,7.7,8.3,7.7l0.1,0.1H8.3c0,0.1,0,0.2,0.1,0.2h0.4c0,0,0.2,0.1,0.1,0.2l0,0.1c0,0-0.1,0-0.1,0.1H8.3
	C8.2,8.3,8.1,8.3,8.1,8.2V8c0.1-0.1,0.1-0.2,0-0.2s0-0.1-0.1-0.2l0,0c0.1,0,0.2,0,0.2,0.2h0.2c0.2-0.1,0.2-0.1,0.3,0
	c0-0.1,0-0.1-0.1-0.2c0.1,0,0.2,0,0.2,0.1s0,0,0.1,0V7.5c-0.1,0-0.1-0.1-0.1-0.2L8.6,7.4c-0.1,0-0.2,0-0.3-0.2h0.1V7.1h0.1V7
	c0,0-0.1,0-0.1-0.1c0,0-0.1,0-0.1-0.1l0,0V6.6c0,0,0.1,0,0.1,0.1c0,0-0.1-0.1-0.1-0.2h0.2V6.4h0.1L8.5,6.3c0.1,0,0.2,0,0.2,0.1v0.1
	c0,0.1,0,0.1,0.1,0.1c0.1,0.1,0.1,0.1,0,0.2l0.1-0.1C9,6.7,9,6.8,9.1,6.8l0,0h0.3C9.2,6.8,9.1,6.7,9,6.7S8.8,6.6,8.7,6.5V6.4V6.3
	h0.1c0-0.1-0.1-0.1-0.1-0.2S8.8,6,8.9,6H9c0.1,0,0.1,0.1,0.2,0.1v0L9.3,6c0,0,0.1,0.1,0.1,0.2l0.1-0.1V6h0.1V5.9
	c0.2,0.4,0.2,0.4,0.3,0.4V6.2H10c0.1,0,0.1,0.1,0.2,0.1V6.2h0.1l0.1,0.1h0.2c0.1,0.1,0.2,0.1,0.3,0.2c0,0,0.1,0,0.1,0.1
	s0,0.1,0.1,0.1c0,0.1,0,0.1-0.1,0.2C10.7,6.8,10.6,6.8,10.6,6.8z M8.9,7.2c0,0.1,0.1,0.1,0.2,0.2L8.9,7.2z M6.5,17.2
	c0.1,0,0.1,0,0.2,0.1c0-0.1,0-0.1,0.1-0.2H6.6c-0.1,0-0.3-0.2-0.2-0.4c0-0.1,0-0.2,0.1-0.2v-0.1c-0.1,0-0.1,0-0.2-0.1H6.1V16
	c0-0.1,0.1-0.2,0.1-0.3s0-0.1-0.1-0.1H5.8l-0.1,0.1c0,0.1-0.1,0.2-0.1,0.2h0c-0.1-0.1-0.1,0-0.2,0H5.3c0,0.1-0.1,0-0.1-0.1
	c-0.1-0.2,0-0.3,0-0.4v-0.2c0-0.1,0.1-0.2,0.2-0.2h0.1l0.1-0.1c0.1,0,0.2,0,0.3,0.1H6v-0.1C6,15,6.2,15,6.3,15.1
	c0.1,0,0.1,0.1,0.2,0c0,0.1,0.1,0.1,0.1,0.2c0,0.1,0.1,0.3,0.1,0.4h0.1c0-0.1,0.1-0.1,0-0.2c0-0.1-0.1-0.2-0.1-0.3s0-0.3,0.1-0.3
	c0.1-0.1,0.2-0.2,0.3-0.2s0.1-0.1,0.2-0.1v-0.1c0.1-0.1,0-0.1,0-0.1c0.2-0.3,0.3-0.3,0.3-0.3c0.1-0.1,0.1-0.1,0-0.2
	c0.1,0,0.2,0,0.2-0.1s0-0.1,0.1-0.1H8v-0.1c0-0.1,0.2-0.3,0.3-0.3s0.1,0,0.1-0.1h0.1c-0.1,0.1-0.1,0.1,0,0.2c0,0,0.1,0,0.1-0.1
	l0.1-0.1c0.1,0,0.1,0,0.2-0.1L8.8,13c0-0.1-0.1-0.1-0.2-0.1c0,0,0.1,0.1,0.2,0.1c-0.1,0-0.2,0-0.2-0.1v-0.1V13c0.1,0,0.1-0.1,0-0.1
	H8.1c0.1-0.1,0.2-0.1,0.2-0.2h0.4c0.1,0,0.2,0,0.3-0.1c0-0.1,0.1-0.1,0.2-0.1C9,12.7,8.9,12.8,8.9,13h0.4v0.1c0,0,0.1-0.1,0.1,0
	l0.1,0.1v-0.1c-0.1,0-0.1-0.1-0.1-0.1v-0.1l-0.1-0.1c-0.1,0.1-0.2,0-0.2-0.1l0.1-0.1c0-0.1,0-0.2,0.1-0.3c0-0.1-0.1-0.1-0.1-0.2
	c0,0-0.1-0.1-0.2-0.1c-0.1-0.1-0.1-0.2-0.2-0.2h0.1l-0.1-0.1v-0.1v-0.1v-0.2v-0.1c-0.2,0.3-0.1,0.3-0.4,0.4c0,0,0-0.1-0.1-0.1v-0.1
	v-0.2c0-0.1,0-0.1-0.1-0.1s-0.1,0-0.1-0.1v-0.1l0,0.1c-0.1,0-0.2,0-0.3-0.1H7.7c0,0.1,0,0.2-0.1,0.2c0,0.1,0,0.2-0.1,0.3
	c0,0-0.1,0-0.1,0.1c0.2,0.1,0.1,0.3,0.1,0.4C7.4,12,7.3,12,7.2,12.1v0.4c0,0,0,0.1-0.1,0.1H7c0-0.1-0.1-0.2-0.1-0.3H7l-0.1-0.1
	c0-0.1,0-0.2,0.1-0.3H6.9c-0.2,0-0.3-0.1-0.4-0.2c0.3-0.1,0.1-0.2,0-0.2v-0.1c0-0.1,0-0.1-0.1-0.2v-0.1c0-0.1,0-0.1,0.1-0.2
	c0-0.1,0.1-0.2,0.2-0.3l0.1-0.1c0.1,0,0.1-0.1,0.1-0.2h0.2c0.1-0.1,0-0.1-0.1-0.2c0.1,0.2,0.1,0.2,0.1,0.1c0,0,0.1,0,0.1,0.1
	l0.2-0.2h0.1c0,0.1-0.1,0.2-0.1,0.3c0,0,0,0.1,0.1,0.1h0.1l0.1-0.1h0.1c0,0.1,0.1,0.1,0.2,0c0-0.1-0.1-0.1-0.1-0.2
	C7.8,10.1,7.6,10,7.6,9.9V10h0.2c0,0,0.1,0,0.2,0V9.9V9.7c0.2,0.1,0.1-0.1,0.2-0.1c0,0,0-0.1-0.1-0.1L8,9.4H7.9L7.8,9.5
	c0,0.1,0,0.1-0.1,0.1c0,0.1-0.1,0.2-0.2,0.3V9.7c0.1-0.1,0.1-0.2,0-0.2L7.4,9.6V9.4c0,0-0.1,0-0.1-0.1c0.1,0,0.1-0.1,0.2-0.1v0V8.9
	c0-0.1-0.1-0.1-0.1-0.1s-0.1,0,0,0.1C7.2,8.9,7.1,9,7.2,9.1C7.1,9.2,7,9.2,7.2,9.3c0,0,0.1,0,0.1,0.1v0.1c-0.1,0-0.1,0-0.1,0.1v0.1
	C7.1,9.6,7,9.6,6.9,9.6c0,0,0-0.1-0.1-0.1c0,0-0.1,0-0.1,0.1s-0.1,0-0.1,0h0c-0.1,0-0.2,0-0.3-0.1c-0.1,0-0.1-0.1-0.1-0.2V9.2H6v0.1
	h0.2C6,9.3,6,9.4,6,9.6c0,0,0-0.1-0.1-0.1c0-0.1,0-0.1-0.1-0.2c0-0.1-0.1,0-0.1,0c-0.1,0-0.2,0-0.3-0.1c0.1,0,0.1,0,0.2-0.1v0l0,0
	C5.4,9.1,5.3,9,5.2,8.9L5.1,8.8H5l0,0c0-0.1,0-0.1,0-0.1v0.1V8.6c0-0.1,0-0.1-0.1-0.1L4.7,8.6c-0.1-0.1-0.1,0-0.2,0H4.3
	c-0.1-0.1-0.2,0-0.3,0c0,0.1,0,0.1,0.1,0.1c0,0-0.1-0.1-0.1-0.2S3.9,8.4,3.9,8.3H3.8L3.7,8.2c-0.2,0-0.3,0-0.4-0.1V8H3.2V7.9
	C3.1,7.9,3,7.8,3,7.7L2.9,7.6c-0.1,0.1-0.2,0-0.3,0h0L2.5,7.7H2.3c-0.1,0-0.1,0.1-0.2,0.2C2,8,2,8,1.9,8c0,0-0.1-0.1-0.1,0
	c0,0-0.1,0.1,0,0.2v0.4c0,0,0.1,0,0.1,0.1v0.1c0,0,0.1,0,0.1,0.1H1.9V9C1.8,9.1,1.8,9,1.7,9c0,0,0-0.1,0.1-0.1
	c-0.1-0.1-0.2-0.1-0.2,0C1.5,8.8,1.4,8.9,1.3,9c0,0,0,0.1,0.1,0.1l0.1,0.1C1.2,8.8,1.2,8.9,1.2,8.9S1.2,9,1.3,9h0.4v0.1
	c0,0.1,0,0.1-0.1,0.2c0,0-0.1,0-0.1,0.1H1.4H1.3H1.2v0.1l0,0v0.1H1.1L1,9.6c-0.1,0,0,0.1,0,0.2v0.1c-0.2-0.1-0.2-0.1-0.2,0
	C0.8,10,0.8,10,1,10c0,0,0,0.1-0.1,0.1v0.1c0,0,0,0.1,0.1,0.1s0.1,0.1,0.1,0.1h0.1v0.1c0,0.1-0.1,0.1-0.1,0.2c0-0.1-0.1-0.1-0.1,0
	c-0.1,0-0.3,0-0.3,0.1c-0.1-0.1-0.3,0-0.2,0.2c0.1,0,0.1-0.1,0.1-0.1h0.1c0.1,0,0.2,0,0.2-0.1c0.2-0.1,0.3-0.1,0.4-0.2
	c0.1-0.1,0.2-0.1,0.3-0.2c0.1-0.1,0.1-0.1,0-0.2c0.1,0,0.1,0,0.2-0.1c0,0,0.1,0,0.1-0.1c0,0,0.1,0,0.1-0.1C2,10,1.9,10,1.9,10.1H1.7
	h0.1C1.9,10.1,1.9,10,2,10l0,0c0.1,0,0.1,0,0.1-0.1l0,0h0.1c0,0,0.1,0,0.1,0.1h0.1h0.1c0.1,0,0.1,0,0.2,0.1c0,0,0.1,0,0.1,0.1
	c0.1,0.1,0.1,0.3,0.2,0.4v0.3c-0.1,0,0,0,0,0.1c0,0,0-0.1,0.1-0.1V11c0,0,0-0.1,0.1-0.1l-0.1-0.1c0.1-0.1,0.1-0.2,0-0.3
	c0.1,0,0.1,0.1,0.1,0.2V11h0.1v0.2c0,0.1,0,0.2-0.1,0.3h0.1v0.1H3.2c0,0.1,0.1,0.1,0.1,0.2H3.2V12c0.1,0,0.1,0.1,0.2,0.1v0.1
	c0,0,0,0.1,0.1,0.1c0.1,0.3,0.1,0.3,0.1,0.4v0.1H3.5H3.3V13c-0.1,0.1-0.1,0.3-0.2,0.4c0,0.2-0.1,0.3,0,0.4c0,0.1,0,0.2,0.1,0.3v0.1
	c0,0.1,0,0.2,0.1,0.2c0,0.1,0.1,0.2,0.2,0.3c0.1,0,0.1,0.1,0.1,0.1c0,0.2,0.1,0.4,0.2,0.4v0.1c0,0.1,0,0.1-0.1,0.1
	c0.1,0,0.1,0.1,0.1,0.1c0.1,0.1,0.1,0.1,0.1,0.2C4,15.8,4,15.9,4.1,15.9h0.1v-0.1v-0.1c0,0,0-0.1-0.1-0.1c0-0.2-0.1-0.3-0.2-0.4
	c-0.1-0.1-0.1-0.2-0.1-0.4c0.1,0,0.1,0,0.1,0.1V15c0.1,0.2,0.2,0.3,0.3,0.4v0.1l0.2,0.2c0.1,0.2,0.3,0.3,0.2,0.4
	c0.1,0.1,0.2,0.2,0.3,0.2H5c0.1,0.1,0.2,0.1,0.4,0.2c0.1,0,0.2,0.1,0.3,0c0.1-0.1,0.2,0,0.3,0l0.1,0.1l0.1,0.1
	c0.2,0,0.4,0.1,0.4,0.2c0,0,0,0.1,0.1,0.1c0,0,0.1,0,0.1,0.1C6.3,17,6.4,17.1,6.5,17.2C6.4,17.1,6.5,17.2,6.5,17.2z M7.3,10.1
	C7.3,10.2,7.4,10.2,7.3,10.1C7.3,10.2,7.3,10.2,7.3,10.1z"/>
<path class="st2" d="M8.6,8.9c0.1,0,0.2,0,0.2,0.1s0.1,0.2-0.1,0.2c0,0,0.1,0,0.1-0.1c0.1,0.1,0.1,0.1,0.1,0.2H9
	c0.2,0,0.1,0.2,0.2,0.3H9c0.1,0,0.1,0.1,0.1,0.1H9H8.9C9,9.8,9.1,9.8,9.2,9.9L9.3,10c0,0,0.1,0,0.1,0.1c0,0,0,0.1-0.1,0.1
	c0,0,0,0.1-0.1,0.1s-0.1,0.1-0.1,0.2C9,10.3,8.9,10.2,9,10.2H8.9l0,0v0.1H8.8c0.1,0.1,0.1,0.2,0.1,0.3C9,10.7,9,10.8,9,10.8v0.1
	c-0.1-0.1-0.2-0.2-0.3-0.2c0,0.1,0.2,0.2,0.2,0.3c-0.1,0-0.1-0.1-0.2-0.1l-0.2-0.2c0,0-0.1-0.1,0-0.1c-0.1-0.1-0.1-0.1-0.1-0.2H8.1
	c-0.1-0.1-0.1-0.1,0-0.1h0.4v-0.1c0.1-0.1,0.2-0.1,0.3-0.2c0-0.1,0-0.2-0.1-0.3l0,0v0.1L8.6,9.7V9.6c0-0.1-0.1-0.1-0.1-0.2L8.4,9.3
	v0.1H8.3H8.2c0,0,0.1,0,0.1,0.1c-0.1,0-0.1-0.1-0.2-0.1S8,9.4,8,9.3c-0.1,0-0.2-0.1-0.2-0.2l0,0H8C7.9,9.1,7.9,9,7.8,9
	C7.7,8.9,7.7,8.8,7.9,8.7C8,8.7,8,8.6,8,8.6c0.1-0.1,0.3-0.1,0.4,0H8.2h0.1c0.1-0.1,0.1-0.1,0.2,0h0.1c0.2,0.1,0.2,0.1,0.2,0.3
	L8.6,8.9C8.7,8.9,8.6,8.9,8.6,8.9L8.6,8.9H8.4C8.4,9,8.5,9,8.6,8.9C8.5,9,8.6,9,8.6,8.9C8.6,9,8.6,8.9,8.6,8.9z M8,8.9
	C8.1,8.9,8.1,8.9,8,8.9C8.1,8.9,8.1,8.9,8,8.9l0.1-0.2C8.1,8.8,8.1,8.9,8,8.9z M6,8.9c0-0.1-0.1-0.2-0.2-0.2H5.7c0,0,0-0.1-0.1-0.1
	h0.2c0,0,0-0.1-0.1-0.1c0,0,0.1-0.1,0.2-0.1c-0.1,0-0.2,0-0.2,0.1L5.6,8.6H5.4V8.5V8.4c0.1,0,0.1-0.1,0.2-0.1c0,0,0-0.1,0.1-0.1
	C5.8,8.1,5.8,8.1,5.8,8H6c0,0.1,0.1,0.1,0.2,0.2v0.3c0.1,0,0.2,0.1,0.1,0.2h0.1V8.5c0.1,0,0.1,0.1,0.1,0.2v0.2
	c0-0.1,0.1-0.2,0.1-0.3s0.1-0.1,0.1-0.1h0.1V8.4H7v0.1c0,0.1-0.1,0.1-0.2,0.1c0,0.1-0.1,0.2-0.1,0.2V9c-0.1,0,0,0.1,0,0.2
	c0,0.1,0.1,0.1,0.1,0.2v0.1H6.6c-0.1-0.1-0.1,0-0.1,0v0.1H6.3c0-0.1-0.1-0.1-0.1-0.1C6,9.2,5.9,9.2,5.8,9.2S5.7,9.1,5.7,9.1v0
	c-0.1,0-0.1,0-0.1-0.1C5.5,9,5.5,8.9,5.5,8.9s0-0.1,0.1-0.1h0.2C5.8,8.9,5.9,8.9,6,8.9z M7.1,7.8C7.1,7.8,7.1,7.9,7.1,7.8
	C7,7.9,7,7.9,6.9,7.9c-0.1-0.1-0.2,0-0.3,0H6.4V7.8h0.2c-0.1,0-0.2,0-0.2-0.1V7.6h0.2H6.5h0.1V7.5L6.5,7.4L6.4,7.5
	C6.2,7.4,6.1,7.4,6.1,7.3s0-0.1,0.1-0.1S6.5,7.1,6.6,7h0.2V6.9C6.7,7,6.7,7,6.8,7c0,0.1-0.1,0.1-0.1,0.2L6.6,7.3c0,0-0.1,0-0.1,0.1
	h0.1V7.3c0.1,0,0.1,0,0.2,0.1s0,0.2,0.1,0.3L7.1,7.8L7,7.6c0,0,0.1,0,0-0.1c0-0.1,0.1-0.1,0.1-0.1h0.1c0,0.1,0,0.1-0.1,0.2v0.1
	l0.1-0.1c0,0,0.1,0,0.1,0.1L7.1,7.8C7.2,7.8,7.1,7.8,7.1,7.8z M7.4,8.8H7.2L7.1,8.9c0,0-0.1,0-0.1-0.1S6.9,8.7,6.9,8.6V8.4H7v0.1
	c0.2,0,0.1-0.1,0.1-0.2h0.1l0,0h0.2c0.1-0.1,0.1,0.1,0.2,0.1l-0.2,0V8.8C7.3,8.7,7.3,8.8,7.4,8.8z"/>
<path class="st2" d="M7.5,8.6c0,0.1,0,0.2-0.1,0.2c0,0-0.1,0-0.1-0.1s0.1-0.2,0.1-0.3s0.1-0.2,0.2-0.1c0.1,0,0.2,0.1,0.2,0.1v0.1
	c0,0,0,0.1-0.1,0.2L7.5,8.6C7.6,8.7,7.5,8.6,7.5,8.6z M7.4,8L7.4,8c0-0.1,0-0.1-0.1-0.2h0.1L7.3,7.7h0.1V7.6
	c0.1,0.1,0.1,0.1,0.1,0.2c0.1-0.1,0.1,0,0.2,0.1V7.8V7.7h0.1C7.9,7.8,8,7.8,7.9,7.9L7.7,8L7.6,8.1C7.4,8,7.4,8,7.4,8z M7.7,6.9
	C7.7,6.9,7.7,6.8,7.7,6.9c0.1-0.1,0.2,0,0.2,0C8,6.9,8,7,8.1,7.1v0.1C8,7.2,8,7.2,8,7.3c0,0,0,0.1-0.1,0.1S7.8,7.3,7.8,7.3
	c0-0.1,0-0.1-0.1-0.1C7.6,7.1,7.6,7.1,7.7,6.9L7.7,6.9L7.7,6.9C7.8,6.9,7.7,6.9,7.7,6.9z M6.6,15.9C6.5,15.9,6.5,15.9,6.6,15.9
	L6.6,15.9L6.6,15.9c0-0.1,0.1-0.2,0.2-0.1c0.2,0,0.4,0.2,0.5,0.3l0.1,0.1c-0.1,0-0.3,0.1-0.4,0v-0.1C6.9,16,6.8,16,6.6,15.9
	L6.6,15.9C6.6,15.8,6.6,15.8,6.6,15.9z M7.4,16.1c0.3,0,0.4,0,0.4,0.2c-0.1,0-0.3,0-0.3,0.1c-0.1,0-0.2,0-0.3-0.1h0.2
	C7.4,16.2,7.4,16.2,7.4,16.1z M6.7,9.3c0.1,0,0.2-0.1,0.2-0.2C6.9,9.2,7,9.2,7,9.2v0.2C6.9,9.5,6.9,9.4,6.7,9.3L6.7,9.3z M3.5,12.5
	c-0.1-0.1-0.2-0.3-0.3-0.4V12c0.1,0.1,0.3,0.1,0.3,0.3V12.5z M7.3,7.1C7.2,7.1,7.2,7.1,7.3,7.1C7.2,7.3,7.1,7.3,7.1,7.2
	c-0.1,0-0.2,0-0.2-0.1V7V6.9H7C7,7,7.1,7,7.1,7C7.2,7,7.2,7,7.3,7.1z"/>
<path class="st2" d="M8.1,7c0.1,0.1,0.1,0.2,0.1,0.3c-0.1,0,0,0.1-0.1,0.1S8,7.4,7.9,7.3H8C8,7.2,8.1,7.1,8.1,7z M7.8,8.3
	c-0.1,0-0.1-0.1-0.2-0.1c0,0-0.1-0.1,0-0.1c0,0,0-0.1,0.1-0.1s0.2,0,0.1,0.1C7.8,8.1,7.8,8.3,7.8,8.3z M8.6,10H8.4H8.3
	c-0.1,0,0-0.1,0-0.1C8.4,9.9,8.4,9.9,8.6,10C8.5,9.9,8.6,9.9,8.6,10z"/>
<path class="st3" d="M10.6,6.8L10.6,6.8L10.6,6.8L11,6.7c0.1-0.1,0.1,0,0.1,0l0,0c0,0.1,0,0.2,0.1,0.2V6.6c0.1,0,0.1,0.1,0.1,0.1
	c0,0.1,0.1,0.1,0.1,0.2S11.5,7,11.5,7c0-0.1-0.1-0.1-0.1-0.2V6.6c0.1,0,0.1,0,0.1,0.1c0,0,0-0.1,0.1-0.1c0,0,0-0.1-0.1-0.1h0.1
	l0.1-0.1c0.1,0,0.1,0.1,0.2,0.1V6.4H12c0-0.1,0.1-0.1,0.2-0.1h0.2c0.1,0.1,0.3,0,0.3,0.2c-0.1,0.1-0.2,0-0.2,0
	c0.1,0.1,0.1,0.1,0.3,0c0,0.1,0.2,0.2,0.2,0.2v0.1c-0.1,0.1-0.3,0.1-0.4,0.1h-0.3c0.1,0.1,0.3,0,0.4,0.1c0,0-0.1,0-0.1,0.1
	c0.1,0.1,0.1,0,0.2-0.1c0,0,0.1,0,0.1,0.1l-0.1,0.2h-0.1c0.1,0,0.1-0.1,0.2-0.1c0.1,0.1,0.1,0,0.2-0.1c0.1-0.1,0.3,0.1,0.3,0.2
	l-0.4,0c0,0-0.1,0-0.1,0.1h-0.1h-0.1c0,0,0.1,0,0.1,0.1c-0.1,0-0.1,0.1-0.1,0.1c0,0.1,0,0.1-0.1,0.1c-0.1,0.1-0.1,0.2-0.1,0.3v0.2
	h-0.1c0,0,0.1,0.1,0.1,0.2h-0.1v0.1c0.1,0,0.1,0,0.1,0.2c-0.1,0-0.1-0.1-0.2,0l-0.1,0.1c0.1,0,0.1,0,0.2,0.1h-0.1v0.2h-0.1v0.2H12
	c0.1,0,0.1,0,0.1,0.1H12h-0.1L12,9.3l0,0c0,0,0,0.1,0.1,0.1l-0.2-0.2c0,0.1,0.1,0.1,0.1,0.1c0,0.1,0,0.1,0,0.2v0.2l0,0
	c0.4,0.2,0.4,0.1,0.4,0l-0.1-0.1c0,0.1,0,0.1,0.1,0.2h-0.1c0.1,0,0.2,0.1,0.3,0.1C12.4,10,12.2,10,12.1,10s-0.2,0.1-0.3,0.1h-0.1
	c-0.2,0.1-0.2,0.3-0.4,0.3c-0.1,0.1-0.3,0.1-0.4,0.1v0.1H11v0.3h-0.1c0,0-0.1,0.1,0,0.1c-0.1,0-0.1,0-0.1,0.1v0.3h-0.1v0.1
	c-0.2,0-0.2-0.1-0.2-0.2c-0.1,0.1-0.2,0-0.2-0.1V11c0-0.1-0.1-0.2-0.1-0.4h-0.1l0.1-0.1l-0.1-0.1v-0.3L10,10c0.1,0,0.1,0,0.1-0.1
	s0.1-0.2,0.2-0.2h0.1l-0.1-0.1c0-0.1,0.2,0,0.1-0.1h0.1v0c-0.1,0-0.2-0.1-0.3-0.2h0.2c0,0,0.1,0,0.1,0.1V9.2h-0.1c0,0,0-0.1,0.1-0.1
	h-0.1c-0.1,0-0.1,0.1-0.1,0.1l-0.1-0.1L10.3,9c0-0.1,0.1-0.2,0-0.3V8.5c0-0.1,0-0.1-0.1-0.2l0,0V8.2l-0.1-0.1c0,0,0-0.1-0.1-0.1H9.8
	v0.1L9.7,7.9h0.1c0-0.1-0.1-0.1-0.1-0.2h0.2c0-0.1-0.1-0.2-0.2-0.3c0-0.1,0.1-0.1,0.2-0.1c0.1,0,0.2,0,0.3-0.1c0,0,0.1,0.1,0.1,0
	l0.1-0.1L10.5,7c-0.1,0-0.1-0.1-0.2-0.1c0,0.2,0,0.1,0.1,0.1c0,0,0-0.1,0.1-0.1h0.3l0.1-0.1C10.6,6.9,10.6,6.9,10.6,6.8z M12.3,10.9
	C12.3,10.9,12.3,10.8,12.3,10.9L12.3,10.9l-0.1-0.2h0.2c-0.1,0-0.1,0-0.2-0.1c0,0,0-0.1,0.1-0.1h0.1v-0.1c0,0.1,0.1,0.1,0.1,0.2
	v-0.1h0.2c0.1,0,0.1,0,0.1-0.1c0.1,0,0.1,0.1,0.2,0.2v0.1c-0.1,0.1-0.2,0.2-0.4,0.2L12.3,10.9C12.5,11,12.4,11,12.3,10.9
	C12.4,10.9,12.3,10.9,12.3,10.9z"/>
<path class="st3" d="M10.2,9.9L10.2,9.9l-0.1-0.2h0.1V9.9C10.3,9.8,10.3,9.9,10.2,9.9C10.3,9.9,10.2,9.9,10.2,9.9z"/>
<path class="st2" d="M7.1,6.9h0.4V7H7.4C7.2,6.9,7.2,6.9,7.1,6.9z M1.5,10.6L1.5,10.6L1.5,10.6v0.2H1.4L1.5,10.6
	C1.3,10.6,1.4,10.6,1.5,10.6C1.4,10.6,1.5,10.6,1.5,10.6z M2.9,11.5C2.9,11.5,3,11.5,2.9,11.5c0.1,0.2,0.1,0.3,0,0.4
	C2.9,11.8,2.8,11.6,2.9,11.5z M0.8,9.2C0.7,9.2,0.7,9.2,0.8,9.2L0.6,9c0,0,0-0.1,0.1,0C0.8,9,0.8,9.1,0.8,9.2
	C0.8,9.1,0.8,9.2,0.8,9.2z M8.2,7.6C8.1,7.6,8,7.6,8,7.5C8,7.5,8,7.4,8.2,7.6C8.1,7.5,8.1,7.5,8.2,7.6z M8.9,13.2c0,0-0.1,0.1-0.2,0
	c0,0,0-0.1,0.1-0.2C8.9,13.1,8.9,13.2,8.9,13.2z M7.7,10.7L7.7,10.7l-0.2,0.1C7.5,10.8,7.5,10.7,7.7,10.7
	C7.6,10.7,7.6,10.7,7.7,10.7z M3,11.2C3.1,11.2,3.1,11.3,3,11.2c0.1,0.1,0.1,0.2,0,0.2V11.2z M6.4,7.5c-0.1,0.1-0.1,0.1-0.2,0
	C6.3,7.5,6.3,7.4,6.4,7.5z M0.3,10.9h0.2V11C0.4,10.9,0.3,11,0.3,10.9z M7.1,16.2c-0.1,0.1-0.1,0-0.2-0.1C7,16.2,7.1,16.2,7.1,16.2z
	 M7.8,10.9C7.7,10.9,7.7,10.8,7.8,10.9L7.8,10.9C7.9,10.8,7.8,10.8,7.8,10.9z M0.5,9.9h0.2V10L0.5,9.9C0.6,9.9,0.6,9.9,0.5,9.9z
	 M7.4,7.3L7.4,7.3C7.4,7.4,7.4,7.3,7.4,7.3z M8.9,12.9c-0.1,0-0.2-0.1-0.2-0.1S8.8,12.8,8.9,12.9z M8,16.2h0.2
	C8.1,16.3,8,16.2,8,16.2z"/>
<g>
	<path class="st2" d="M0,11.1C0,11.1,0,11,0,11.1C0.1,11,0.1,11.1,0,11.1L0,11.1z"/>
</g>
<g>
	<path class="st2" d="M8.3,7.6C8.3,7.6,8.2,7.6,8.3,7.6C8.3,7.6,8.4,7.6,8.3,7.6z"/>
</g>
<g>
	<path class="st2" d="M8.2,6.7L8.2,6.7C8.3,6.7,8.3,6.8,8.2,6.7L8.2,6.7C8.2,6.8,8.2,6.8,8.2,6.7z"/>
</g>
<g>
	<path class="st2" d="M7.7,7.2L7.7,7.2C7.7,7.3,7.7,7.3,7.7,7.2C7.6,7.3,7.6,7.3,7.7,7.2z"/>
</g>
<g>
	<path class="st2" d="M7.1,7.8L7.1,7.8C7.2,7.9,7.2,7.9,7.1,7.8C7.1,7.9,7.1,7.9,7.1,7.8z"/>
</g>
<g>
	<path class="st4" d="M27.9,8.2L27.9,8.2c0.2-0.1,0.2,0,0.3,0h0.2l-0.1-0.1c0-0.1-0.1-0.1-0.1-0.2s0.1-0.1,0.1-0.1V7.7
		c0-0.1,0-0.1-0.1-0.1H28l-0.1,0.1c0,0.1,0.1,0.1,0.1,0.2l-0.2-0.2c0,0-0.1-0.1-0.2-0.1h-0.4c-0.1,0-0.2-0.1-0.3-0.1h-0.3
		c-0.1,0-0.2,0.1-0.4,0.1l0.2,0.2l0.1,0.1c0,0,0,0.1-0.1,0.1c-0.1-0.1-0.2-0.1-0.3-0.1V7.8c0,0-0.1,0-0.1-0.1v0.2h-0.4V8
		c-0.1,0-0.1,0-0.2-0.1c0-0.1-0.1-0.2-0.2-0.2h-0.1c-0.1,0-0.2,0.1-0.3,0.2H25l-0.1-0.1h-0.2c0-0.1-0.1-0.2-0.2-0.2s-0.2,0-0.2,0.1
		c-0.2-0.1-0.4,0-0.5,0c0,0,0.1,0,0.1,0.1c-0.1,0-0.1,0.1,0,0.1c-0.1,0-0.1,0.1,0,0.1h-0.1h-0.1v0.1h-0.1c-0.1-0.1-0.2,0-0.2,0.1
		h-0.2v0.2c-0.1-0.1-0.3-0.2-0.4-0.2H23c0-0.1-0.1-0.2-0.2-0.3c0,0-0.1-0.1-0.2,0c-0.1-0.1-0.2-0.1-0.2,0c0,0.1,0.1,0.1,0.1,0.2
		c-0.1,0-0.2,0.1-0.3,0h-0.1H22V8c-0.1,0-0.2,0-0.3,0.1c-0.1,0-0.1,0-0.2,0.1c0,0-0.1,0-0.1-0.1c0,0,0,0.1,0.1,0.1l-0.1,0.1
		c0,0,0-0.1,0.1-0.1V8.1V7.9c0,0,0-0.1,0.1-0.1c0.1-0.2,0.1-0.3-0.1-0.4h0.1c-0.1-0.1-0.2-0.1-0.2-0.1c-0.1-0.1-0.2-0.1-0.3,0H21
		l0,0c0-0.1,0-0.1-0.1-0.1h-0.1v0c-0.1,0-0.1-0.1-0.2-0.1c0,0,0,0.1-0.1,0.1v0.1c0,0.1,0.1,0.1,0.1,0.2h-0.1v0.2h-0.1h-0.1
		c0,0.1,0,0-0.1,0.1h-0.1c0.1,0,0.1,0.1,0,0.1c0,0-0.1,0-0.1,0.1c-0.1,0.1-0.1,0.2-0.1,0.3h-0.1c0,0,0.1,0,0.1,0.1h-0.1
		c0.1,0,0.1,0.1,0.2,0.1h-0.1h-0.1c-0.1,0-0.2,0.1-0.3,0.1l-0.1,0.1c0,0.1,0.1,0.2,0.1,0.2H20c0.1,0,0.2,0.1,0.2,0.1H20
		c-0.1-0.1-0.2-0.1-0.3-0.1h-0.1L19.7,9v0.1h-0.1h-0.1L19.7,9c-0.1,0-0.1-0.1-0.2-0.1c0-0.1,0-0.1-0.1-0.2c0,0.1,0,0.1-0.1,0.2v0.2
		c0.1,0,0.1,0.1,0.1,0.2c0,0.1,0,0.2,0.1,0.2h0.1c0.1,0,0.2,0,0.3,0.1v0.1h-0.1l-0.1-0.1c0,0-0.1,0-0.1,0.1c-0.1,0.2-0.1,0.2,0,0.3
		l0,0c0,0.1-0.1,0.2-0.1,0.3c-0.1,0-0.2,0-0.2-0.1c0.1,0,0.1,0,0.1,0.1c0.1-0.1,0.1-0.2,0.1-0.3V9.8c-0.1-0.1-0.1-0.2-0.2-0.3
		c0-0.1,0-0.2-0.1-0.2c-0.1-0.1-0.1-0.1-0.1-0.2C19.1,9,19.1,9,19,9c0.1-0.1,0-0.1,0-0.1h-0.1c0,0,0,0.1,0.1,0.1h-0.1v0.4L19,9.5
		c0,0.1,0,0.1,0,0.2c0.1,0.1,0.1,0.1,0.1,0.2c-0.2,0-0.3-0.1-0.4-0.1s-0.1-0.1-0.2-0.1s-0.3,0-0.4-0.1c0,0.1,0,0.1,0.1,0.1l0.2,0.2
		c0,0.1,0,0.1-0.1,0.1c-0.1,0-0.1,0-0.2,0L18,10.1c0-0.1-0.1-0.1-0.1-0.1l-0.1,0.1h-0.1l-0.3,0.3l-0.1,0.1c0,0-0.1,0-0.1-0.1
		c0,0,0-0.1,0.1-0.1c-0.1-0.1-0.1-0.2-0.2-0.1v0.3c0.1,0.1,0,0.1,0,0.2c-0.1,0-0.1,0-0.2-0.1l-0.1,0.1c0,0-0.1,0.1,0,0.2
		c0.1,0.1,0,0.1,0,0.1c-0.1,0-0.2-0.1-0.3-0.1c0,0.1,0,0.1,0.2,0.2c0,0-0.1,0-0.1,0.1c-0.1,0-0.3-0.2-0.2-0.3c0-0.1,0-0.1-0.1-0.2
		c-0.1,0-0.1-0.1-0.1-0.1c0.2,0.1,0.3,0.1,0.4,0.1s0.2,0,0.3-0.1c0-0.1,0-0.1-0.1-0.2c-0.1-0.3-0.2-0.3-0.2-0.3
		c0.1-0.1,0-0.1-0.1-0.1c0,0-0.1,0,0,0c0-0.1-0.1-0.1-0.1-0.1L16.3,10h-0.2c0.1,0,0.1-0.1,0.2-0.1c-0.1-0.2-0.2-0.2-0.3-0.3
		c-0.1,0-0.1,0.1-0.2,0.1c0-0.1-0.1,0-0.1-0.1c0,0.1-0.1,0.2-0.3,0.1c0,0,0,0.1,0.1,0.1h-0.1V10h-0.1h-0.1h-0.1l0,0
		c0,0,0.1,0.1,0,0.1H15c0,0.1,0.1,0,0.2,0c0,0.1-0.1,0.1-0.1,0.2v0.1c-0.1,0-0.1,0.2-0.1,0.2c0,0.1,0,0.2-0.1,0.2H15
		c0,0-0.1,0.1,0,0.2c-0.1-0.1-0.1,0-0.2,0.1h-0.1v0.1c-0.1,0-0.1,0.1-0.2,0.1v0.4h-0.1l0.1,0.1h-0.1c0.1,0,0.1,0.1,0.2,0.1h0.2
		l0.2-0.2c0,0.1,0,0.2,0.1,0.3c0,0.1,0.1,0.2,0.1,0.3h-0.1c0,0-0.1,0-0.1,0.1l0.1,0.1c0-0.1,0-0.1,0.1-0.1h0.1
		c0-0.1,0.1-0.1,0.2-0.1V12c0-0.1,0-0.2,0.1-0.2s0-0.1,0.1-0.1l-0.1-0.1v-0.1c0-0.1,0-0.2,0.1-0.3l0.1-0.1c0.1-0.1,0.2-0.1,0.1-0.2
		v-0.1c0-0.1,0.1-0.1,0.2-0.1c0,0,0.1,0,0.1,0.1V11c-0.1,0.1-0.1,0.2-0.2,0.3v0.4c0.1,0.1,0.2,0.2,0.4,0.1c0.1,0,0.2-0.1,0.3,0
		c-0.1,0-0.1,0.2-0.3,0.1c-0.1,0-0.2,0-0.2,0.1v0.2c0.1,0.1,0.1,0.1,0,0.2l-0.1-0.1c-0.1,0-0.1,0.1-0.1,0.2s0.1,0.1,0.1,0.2h-0.4
		c0-0.1-0.1-0.1-0.1,0c-0.1,0-0.2,0.1-0.3,0.2c0,0,0-0.1-0.1-0.1H15c-0.1,0-0.1-0.1-0.1-0.2c0.1,0,0.1,0.1,0.2,0.1
		c-0.2-0.1-0.2-0.2-0.1-0.2c0,0-0.1-0.1,0-0.1h-0.1v0.1c-0.1,0.1-0.1,0.1-0.1,0.3c0,0.1,0.1,0.2,0,0.3h-0.1c-0.1-0.1-0.3,0-0.3,0.2
		v0.1c-0.1,0-0.1,0-0.2,0.1c0,0.1,0,0.1-0.1,0.1c0,0.1-0.1,0-0.1,0h0v0.1h-0.3c0,0.1,0,0.1,0.1,0.1c0,0,0.1,0,0.1,0.1
		C14,14,14,14.1,14,14.1V14l-0.1,0.1h-0.3c-0.1,0-0.3-0.1-0.4,0c0.1,0.1,0,0.3,0,0.4c0,0.1-0.1,0.1,0,0.2v0.1c0,0.1,0,0.1,0.1,0.1
		h0.2c0.1,0,0.1,0,0.1,0.1h0.1c0.1,0,0.2-0.1,0.3-0.2c0,0,0-0.1,0.1-0.1v-0.1c0-0.1,0.1-0.1,0.2-0.2c0.1,0,0.1-0.1,0.1-0.2
		c0-0.2,0.1-0.2,0.2-0.1h0.1c0,0,0.1-0.1,0.2-0.1H15c0.1,0.2,0.2,0.3,0.4,0.4c0.1,0,0.1,0.1,0.2,0.2c0.1,0.1,0,0.2,0,0.2h-0.3
		c0.1,0.1,0.2,0.1,0.3,0.2v-0.1c0,0,0-0.1,0.1-0.1c0-0.1,0.1-0.1,0-0.2v-0.1h0.2c0,0,0-0.1-0.1-0.1l-0.2-0.2c-0.2,0-0.2-0.2-0.3-0.3
		c-0.1,0,0-0.2,0.1-0.2v0.1h0.1v-0.1l0.1,0.1c0,0.1,0.1,0.1,0.1,0.1c0.1,0.1,0.2,0.1,0.2,0.2v0.1c0,0.1,0.1,0.2,0.1,0.2
		c0,0.1,0.1,0.1,0.1,0.2H16l0.1,0.1c0,0,0.1,0,0.1,0.1c0-0.1,0-0.2,0.1-0.2v-0.1c-0.1-0.1-0.2-0.1-0.2-0.3c0.1,0,0.1,0.1,0.1,0h0.2
		c-0.1,0.1,0,0.1,0,0.2h0.1v0.1c0,0,0,0.1,0.1,0.1c0.1,0.1,0.2,0.1,0.3,0.2H17c0-0.1,0.1,0,0.1,0c0.1,0.1,0.1,0.1,0.3,0h0.1V15
		c0,0.1-0.1,0.2-0.1,0.3v0.1c0.1,0,0.2,0.1,0.2,0.2v0.3c0.1,0.1,0.1,0.2,0.2,0.3c0,0,0,0.1,0.1,0.1s0.1,0.1,0.1,0.2s0.1,0.2,0.1,0.2
		l0.1,0.1c0,0.1,0.1,0.1,0.1,0.2s0.1,0.1,0.1,0.2s0,0.2,0.1,0.3l0.1,0.1c0.1,0,0.2-0.1,0.4-0.1c0.1,0,0.2-0.1,0.2-0.1
		c0.1,0,0.2,0,0.3-0.2c0.1,0,0.2,0,0.2-0.1c0.1-0.1,0.2-0.1,0.3-0.2c0-0.1,0-0.1,0.1-0.2s0.1-0.1,0.1-0.2c0,0-0.1,0-0.1-0.1
		s-0.1-0.1-0.2-0.1h-0.1c0-0.1-0.1-0.2-0.1-0.3c-0.1,0-0.2,0.2-0.3,0.2c-0.1,0-0.1,0-0.1-0.1c0-0.1,0-0.1-0.1-0.2l0,0l-0.1-0.1
		c0-0.1-0.1-0.1-0.1-0.2c-0.1-0.1,0-0.1,0-0.1h0.1c0,0,0.1,0,0.1,0.1s0.1,0.1,0.1,0.2c0.1,0,0.1,0.1,0.2,0.1s0.2,0.1,0.3,0h0.1
		c0,0.1,0.1,0.1,0.2,0.1h0.1c0.2,0.1,0.4,0,0.5,0s0.1-0.1,0.2,0.1c0.1,0,0.1,0.1,0.2,0.1H21c0.2,0.2,0.2,0.2,0.4,0.1
		c0,0.1,0,0.2,0.1,0.3c0,0.1,0.1,0.3,0.1,0.4s0.1,0.2,0.1,0.3V17c0.1,0.1,0.1,0.2,0.2,0.3c0,0.1,0.1,0.1,0.1,0.2l0.1-0.1
		c0.1-0.1,0.2-0.2,0.2-0.3v-0.2v-0.2c0.1,0,0.2-0.1,0.2-0.2l0.2-0.2l0.1-0.1c0.1,0,0.1-0.1,0.1-0.1L23,16h0.2v-0.1l0.1,0.1
		c0,0.1,0.1,0.2,0.2,0.2h0.1v0.1c0.1,0.1,0.1,0.1,0.1,0.3c0,0,0,0.1,0.1,0.1h0.1c0.2-0.1,0.2-0.1,0.2,0.1V17
		c0.1,0.2,0.1,0.3,0.1,0.4v0.1c0.1,0.1,0.2,0.2,0.2,0.3c0,0.1,0.1,0.2,0.1,0.3c0.1,0.1,0.2,0.1,0.3,0.2v-0.1c0-0.1-0.1-0.1-0.1-0.2
		s0-0.2-0.1-0.2s-0.1-0.1-0.2-0.1c0,0-0.1,0-0.1-0.1s-0.1-0.1-0.1-0.2v-0.2c0-0.1,0.1-0.2,0.1-0.3l0.3,0.3c0,0.1,0.1,0.1,0.1,0.2
		c0,0,0,0.1,0.1,0.1l0.1-0.1c0,0,0-0.1,0.1-0.1s0.2-0.1,0.2-0.1c0-0.2,0-0.3-0.1-0.4l-0.3-0.3c0-0.1-0.1-0.1,0-0.2
		c0-0.1,0.1-0.2,0.2-0.2c0,0,0.1-0.1,0.1,0l0.1,0.1c-0.1,0-0.2,0-0.1,0.1l0.1,0.1c0.1,0,0.1-0.1,0.1-0.1s0-0.1-0.1-0.1v-0.1
		c0.1,0,0.2,0,0.3-0.2h0.3c0-0.1,0.1-0.1,0.1-0.2c0.1-0.1,0.1-0.2,0.1-0.3c0.1-0.1,0.1-0.3,0.2-0.4l-0.1-0.1l0.1-0.1L24.8,15h0.1
		c-0.1-0.1-0.1-0.1-0.1-0.2c-0.1-0.1-0.1-0.2-0.2-0.2v-0.1c0-0.1,0.1-0.2,0.2-0.3c0,0,0.1,0,0.1-0.1L24.8,14h-0.1
		c-0.1-0.1-0.1,0-0.1,0h-0.1l-0.1,0v-0.1h0.2c0.1-0.1,0.1-0.2,0.2-0.2h0.1v0.1c0,0.1,0,0.1,0.1,0.2c0.1-0.1,0.2-0.1,0.3-0.1v0.2
		l0.1,0.1c0.1,0,0.1,0,0.1,0.1h-0.1c0.1,0.1,0.1,0.1,0.1,0.2c0,0.1,0,0.1,0.1,0.1h0.2c0.1,0,0.1,0,0.1-0.1c0-0.2-0.1-0.3-0.3-0.4
		c-0.1-0.1-0.1-0.1,0-0.2c0.1-0.1,0.1-0.1,0.1-0.2v-0.1c0-0.1,0.1-0.1,0.2-0.2c0.1,0.1,0.2,0,0.2-0.1s0.1-0.1,0.1-0.2
		s0.1-0.2,0.1-0.3v-0.3v-0.3c0-0.1-0.1-0.2-0.1-0.3V12v-0.1c0-0.1,0-0.1-0.1-0.2c-0.1-0.1-0.2-0.2-0.3-0.1v0.1c-0.1,0-0.1,0-0.2-0.1
		c0,0,0-0.1-0.1-0.1h-0.1v-0.1c0-0.1,0.1-0.1,0.1-0.2c0-0.1,0-0.1,0.1-0.2c0-0.1,0-0.1,0.1-0.2v-0.2c0-0.1,0.1-0.1,0.1-0.1
		c0.1,0,0.2-0.1,0.3-0.1s0.1,0,0.2-0.1h0.3v0.1h0.1c0.1,0,0.2-0.1,0.2-0.2h-0.1c-0.1,0-0.1-0.1-0.1-0.1V10l0.1-0.3
		c0.1,0,0.1,0,0.2-0.1c0,0.2,0.1,0.2,0.2,0.2c0.1-0.1,0-0.2,0.1-0.3c0-0.1,0-0.1-0.1-0.2c0-0.1,0-0.1,0.1-0.1v0.1
		c0,0.1,0.1,0.2,0.1,0.3C27,9.8,27,9.8,27,9.9v0.4c0,0-0.1,0.1,0,0.1v0.2c0,0.2,0.2,0.4,0.3,0.5c0.1,0.1,0.1,0.2,0.2,0.4l0.1,0.1
		c0.1-0.1,0-0.3,0-0.4c0,0,0.1,0,0.1-0.1c-0.1-0.2-0.1-0.3,0.1-0.3c-0.1-0.1-0.2-0.2-0.1-0.4h0.1c0-0.1-0.1-0.1-0.1-0.2
		c0,0-0.1-0.1,0-0.1c0-0.1,0-0.1-0.1-0.2l0,0c0-0.1,0-0.2-0.1-0.3v0.1c0.1,0,0.1-0.1,0.1-0.1s0.1,0,0.1,0.1c0-0.1,0-0.2,0.1-0.2
		s0.1,0.1,0.2,0.1c0-0.2,0-0.3,0.1-0.4l0.1-0.1c0.1-0.1,0.1-0.3,0.3-0.2V8.8c0-0.1-0.1-0.1-0.2-0.2c0,0,0-0.1-0.1-0.1
		S28,8.4,27.9,8.4s-0.1,0-0.2-0.1h0.1C27.9,8.4,27.9,8.3,27.9,8.2L27.9,8.2C27.8,8.1,27.8,8,27.7,8c-0.1,0-0.1-0.1-0.1-0.2
		C27.8,8.2,27.8,8.2,27.9,8.2z M17.5,13.8c-0.2,0-0.2,0-0.3-0.1c-0.1-0.1-0.3-0.1-0.4,0s-0.2,0.1-0.2,0.1c-0.1,0-0.1-0.1-0.2-0.1
		v-0.1c0-0.1,0-0.1,0.1-0.2c0,0,0.1-0.1,0.1-0.2s0.1-0.1,0.1,0c0,0,0.1,0,0.1,0.1c0,0,0,0.1,0.1,0.1H17c0.1,0,0.1-0.1,0.2-0.1
		c0-0.1-0.2,0-0.2-0.1c0.1-0.1,0.2-0.1,0.4-0.2c0,0.1,0,0.1-0.1,0.2l-0.1,0.1l0.1,0.1c0.1,0.1,0.2,0.1,0.3,0.2
		C17.7,13.8,17.6,13.8,17.5,13.8z M18.4,14.2c0-0.1,0-0.3,0.1-0.3l-0.2-0.2c-0.1-0.1-0.1-0.1-0.1-0.2v-0.1c-0.1-0.1,0-0.2,0-0.2
		c0.1,0,0.1-0.1,0.2-0.1c0.1-0.1,0.2,0,0.2,0v0.2c-0.2,0-0.2,0-0.1,0.1h-0.1l0.3,0.3c0,0,0,0.1,0.1,0.1c0,0.1,0,0.1,0.1,0.2
		c0,0,0,0.1,0.1,0.1v0.2C18.7,14.4,18.6,14.4,18.4,14.2z"/>
	<path class="st4" d="M20,9.3C20,9.3,19.9,9.3,20,9.3c-0.2-0.1-0.1-0.2-0.1-0.3L20,9.3z M27.8,18.7c0.1,0.1,0.2,0.2,0.3,0.4
		c-0.2,0-0.3,0-0.4-0.2s-0.2-0.2-0.3,0V19c-0.1,0-0.2,0-0.3-0.1c-0.1-0.1-0.1-0.1-0.2,0h-0.1c0-0.1-0.1-0.2-0.2-0.3
		c-0.1,0-0.2-0.1-0.3-0.1l-0.1,0.1c0-0.1-0.1-0.1-0.1-0.2h0.1L26,18.2c0-0.1,0.1-0.1,0.2-0.1s0.2,0.1,0.1,0.2c0,0,0,0.1,0.1,0.1h0.1
		l0.2-0.2c0.2,0.1,0.4,0.2,0.5,0.2s0.2,0.1,0.2,0.2c0,0,0.1,0,0.1,0.1C27.8,18.5,27.8,18.6,27.8,18.7C27.8,18.6,27.8,18.6,27.8,18.7
		z M25.2,17.5C25.2,17.6,25.2,17.6,25.2,17.5C25.1,17.6,25.1,17.6,25.2,17.5L25.2,17.5c-0.1,0.2-0.1,0.4,0,0.4h-0.1V18
		c0,0,0,0.1-0.1,0.1c0,0.1,0,0.1-0.1,0.2c0,0.1-0.1,0.1-0.2,0h-0.1c-0.1,0-0.3,0-0.3-0.2c0-0.1-0.1-0.1-0.1-0.2v-0.2h0.2
		c0,0,0-0.1,0.1-0.1s0.1-0.1,0.2-0.2c0,0,0-0.1,0.1-0.1s0.1-0.1,0.2-0.1c0-0.1,0.1-0.1,0.2,0C25.1,17.4,25.2,17.5,25.2,17.5z
		 M23.9,18.5h-0.2l-0.2-0.2c-0.1-0.1-0.1-0.2-0.2-0.3l0,0c-0.1-0.1-0.2-0.3-0.3-0.4h0l-0.1-0.1c0.1,0.1,0.3,0,0.4,0.2
		c0,0.1,0.1,0.1,0.2,0.2s0.2,0.2,0.4,0.3c-0.1,0.1-0.1,0.1,0,0.1H24l0.1,0.1c0,0,0.1,0.1,0,0.1C23.9,18.5,23.9,18.5,23.9,18.5
		C24,18.5,24,18.5,23.9,18.5c0.2,0,0.2,0.1,0.3,0.1h0.2c0.1,0,0.2,0,0.3,0.1h-0.1v0.1c0.2,0,0.3,0.1,0.4,0.1c0.1-0.1,0.1,0,0.1,0
		c-0.1,0-0.2,0.1-0.3,0c-0.1,0-0.1-0.1-0.2,0h-0.2c-0.1,0-0.3,0-0.4-0.1h-0.2C23.9,18.8,23.9,18.5,23.9,18.5z M17.7,8.6
		C17.7,8.6,17.8,8.6,17.7,8.6c0.1-0.2,0.2-0.3,0.2-0.3H18c0.1,0,0.2-0.1,0.2-0.2l0,0c0.1-0.1,0.1,0,0.2,0v0.2
		c-0.1,0.1-0.2,0.1-0.2,0.2c-0.1,0.1-0.1,0.2-0.2,0.3l-0.1,0.1L17.8,9v0.2c0,0.1,0,0.1-0.1,0.1v0.2c0,0.2,0.1,0.3,0.3,0.4h-0.1
		c-0.2,0-0.3-0.1-0.4-0.2l-0.1-0.1c0.1,0,0.1-0.1,0-0.2c0.3-0.1,0.3-0.2,0.3-0.2L17.6,9l0.2-0.2L17.7,8.6
		C17.7,8.7,17.7,8.7,17.7,8.6z M26.1,14.5C26,14.4,26,14.4,26,14.3v0.4h-0.1v-0.1c0,0,0-0.1-0.1-0.1c0,0,0.1,0,0.1-0.1
		s0.1-0.1,0.1-0.2c0.1,0,0.2-0.1,0.2-0.1c0.1,0,0.1,0,0.1-0.1v-0.2c0,0.1,0.1,0.1,0.2,0c0-0.1,0.1-0.1,0.1-0.2v-0.3
		c0-0.1,0-0.1,0.1-0.1c0,0.1,0.1,0.1,0.1,0.2s0.1,0.2,0,0.3v0.1c0,0.1,0,0.2,0.1,0.3c0,0.1,0,0.1-0.1,0.1c0,0.1-0.1,0.1-0.2,0.1
		c0,0.1,0,0.1-0.1,0.2c0-0.1-0.1-0.1-0.1-0.2h-0.1c0,0,0.1,0,0.1,0.1C26.1,14.4,26.1,14.5,26.1,14.5z M15.2,8.1
		c0,0.2-0.1,0.4-0.1,0.5c0,0-0.1,0-0.1-0.1s0-0.1,0-0.1V8.3c0-0.1,0-0.1-0.1-0.2L14.8,8V7.9c-0.1-0.1-0.1-0.1-0.1-0.2
		c0,0,0.1-0.1,0.2,0c0.1,0,0.1,0,0.1,0.1V7.7c0.1,0,0.2,0.1,0.2,0.2C15.2,7.9,15.2,8,15.2,8.1h0.2v0.1h0.1c0,0.1-0.1,0.1-0.1,0.1
		h-0.1C15.2,8.3,15.2,8.3,15.2,8.1C15.3,8.2,15.3,8.1,15.2,8.1z M14.2,12.8C14.2,12.8,14.3,12.8,14.2,12.8s-0.3,0-0.4,0.1
		c-0.1,0-0.1,0.1-0.2,0.1c0-0.1,0-0.2,0.1-0.2h-0.1h-0.1c0.1-0.1,0.2-0.1,0.1-0.2h0.1c0-0.1,0-0.2-0.1-0.2c0-0.1-0.1-0.1-0.1-0.2
		v-0.1l0.1-0.1c0-0.1,0.1-0.1,0.2,0v0.1c0.1,0,0.1,0,0.1,0.1c0,0,0,0.1-0.1,0.2c0.1,0.1,0.1,0.2,0.2,0.3v0.1L14.2,12.8
		c0,0.1,0,0.2-0.1,0.3C14.2,12.7,14.2,12.7,14.2,12.8z M20,7.1c0,0.1-0.1,0-0.2,0s-0.2,0-0.3-0.1h-0.1c-0.1,0-0.1-0.1-0.2-0.1h0.1
		c-0.2-0.1-0.2-0.3-0.1-0.4l0.1,0.1h0.1c0,0,0.1,0,0.1,0.1s0.1,0.1,0.2,0.1s0.1,0.1,0.2,0.1C20,6.9,20,7,20,7.1z M23.3,7.3
		c-0.2,0-0.3,0-0.3-0.2c-0.1-0.1-0.2-0.2-0.1-0.3c0.1,0,0.2,0.1,0.3,0.1l0,0h0.1c0,0,0.1,0,0.1,0.1l0,0c0.1,0,0.2,0,0.2,0.1
		c0,0,0,0.1,0.1,0.1c0,0.1,0,0.1-0.1,0.1v0.1C23.4,7.1,23.4,7.2,23.3,7.3C23.3,7.2,23.3,7.2,23.3,7.3C23.3,7.2,23.3,7.3,23.3,7.3z
		 M25.4,18.2c0,0.1,0,0.1,0.1,0.2c0,0,0.1,0,0.1,0.1c0,0-0.1,0-0.1,0.1c0-0.1-0.1-0.1-0.1-0.2v0.2c-0.1,0-0.1,0-0.1-0.1v-0.1
		L25.4,18.2c-0.1,0,0-0.1,0-0.2c0,0,0.1-0.1,0.2-0.1H26c0,0.1-0.1,0.1-0.2,0.1h-0.3C25.5,18,25.4,18,25.4,18.2L25.4,18.2
		c0.1-0.1,0.3-0.1,0.3-0.1C25.5,18.1,25.5,18.2,25.4,18.2z M26,11.7c0-0.1,0-0.2-0.1-0.3c0.1,0,0-0.1,0-0.1l0.2,0.2l0.3,0.5
		c0,0,0,0.1,0.1,0.1c-0.1,0-0.1,0-0.1,0.1c0,0.2,0,0.2,0.2,0.4h-0.1v0.1c-0.1,0-0.1-0.1-0.1-0.1c0-0.1-0.1-0.2-0.1-0.3
		s-0.1-0.3-0.1-0.4C26.1,11.8,26.1,11.8,26,11.7z M15.3,7.6c0.1,0,0.2,0,0.2,0.1c0.1,0,0.1,0.1,0.1,0.2V8c0,0-0.1,0-0.1,0.1
		C15.4,8,15.3,8,15.1,7.9V7.7L15.3,7.6c0,0.1,0,0.2,0.1,0.2C15.4,7.7,15.3,7.6,15.3,7.6z M26.5,13.1C26.6,13.1,26.6,13.2,26.5,13.1
		v0.2C26.4,13.2,26.3,13.1,26.5,13.1L26.5,13.1c0-0.2,0-0.3-0.1-0.4c0.1,0,0.1,0.1,0.1,0.1c0.1,0.1,0.1,0.1,0.2,0.1s0.1,0.1,0.2,0.1
		c-0.1,0.1-0.2,0.1-0.2,0.2C26.6,13.1,26.6,13.1,26.5,13.1C26.6,13.1,26.6,13.1,26.5,13.1z"/>
	<path class="st4" d="M13.2,12.3C13.3,12.3,13.3,12.3,13.2,12.3h0.2c0-0.1,0-0.1,0.1-0.1s0.1,0,0.2,0.1v0.2c0,0.1,0,0.1-0.1,0.2
		h-0.3c0-0.1,0-0.1,0.1-0.1C13.2,12.4,13.3,12.3,13.2,12.3z M25.6,16.8c-0.1-0.1-0.2-0.1-0.2-0.1h-0.1c-0.1-0.1-0.2-0.1-0.2-0.3
		v-0.3h0.2v0.3c-0.1,0.1-0.1,0.1,0,0.2C25.4,16.6,25.5,16.6,25.6,16.8C25.6,16.7,25.6,16.7,25.6,16.8z M20.2,7.3
		C20,7.2,20.1,7,20,6.9c0,0,0.1,0,0-0.1c0.1,0,0.1,0.1,0.2,0.1c0,0,0.1,0,0.1,0.1c0.2,0.1,0.2,0.1,0.1,0.2
		C20.4,7.2,20.3,7.3,20.2,7.3z M25.8,17.5c-0.1,0-0.2,0-0.2-0.2h-0.1h-0.1v-0.1l0.1-0.1c0.1,0,0.2,0,0.2-0.1
		c0.1,0.1,0.1,0.2,0.2,0.3C25.8,17.3,25.8,17.3,25.8,17.5z M16.7,7.4L16.7,7.4L16.7,7.4c0-0.2,0-0.2,0.2-0.1V7.2L17,7.3
		c0,0-0.1,0-0.1,0.1v0.1c0,0,0.1,0.1,0.2,0.1L17,7.5h-0.1L16.7,7.4C16.7,7.5,16.7,7.5,16.7,7.4z M21.5,17c0.1,0.1,0.1,0.2,0.2,0.3
		c0,0.1,0,0.1-0.1,0.2c-0.1,0-0.1,0-0.1-0.1C21.4,17.2,21.5,17.1,21.5,17z M25.2,15.8c-0.2-0.1-0.2-0.2,0-0.4c0.1,0,0.1,0.1,0.1,0.2
		C25.2,15.6,25.2,15.7,25.2,15.8z M27.9,18.5h0.2c0.1,0,0.1,0,0.2-0.1s0-0.1,0.1,0v-0.1c0,0.1,0,0.2-0.1,0.3
		C28.2,18.6,28,18.6,27.9,18.5z M23.6,6.9c0.1,0,0.3-0.1,0.4,0.1h-0.1C23.8,7,23.7,6.9,23.6,6.9z M23.8,7.6h-0.2
		c-0.1,0-0.1-0.1-0.1-0.1c0-0.1,0.1-0.1,0.1,0C23.7,7.5,23.8,7.5,23.8,7.6z M25.9,18.8c-0.1,0.1-0.2,0.1-0.3,0.2h-0.1
		c0,0,0-0.1,0.1-0.1c0,0,0.1,0,0.1-0.1H25.9z M17.4,7.1C17.4,7,17.4,7,17.4,7.1C17.4,7,17.4,7,17.4,7.1C17.4,7.1,17.5,7.2,17.4,7.1
		C17.4,7.2,17.4,7.3,17.4,7.1C17.4,7.2,17.4,7.1,17.4,7.1z"/>
	<path class="st4" d="M25.6,16.9v0.2C25.6,17.1,25.5,17.1,25.6,16.9L25.6,16.9c-0.1,0-0.2,0-0.2-0.1C25.5,16.9,25.5,16.9,25.6,16.9z
		 M26.1,17.9C26.1,17.9,26.1,18,26.1,17.9C25.9,18,25.9,18,26,18.1C26,18,25.9,17.9,26.1,17.9C26,17.8,26.1,17.9,26.1,17.9z
		 M17.6,7.1c-0.1-0.1-0.1-0.1,0-0.2C17.6,6.9,17.7,6.9,17.6,7.1C17.7,7,17.6,7,17.6,7.1z M17.5,10C17.5,9.9,17.5,9.9,17.5,10h0.2
		C17.7,10,17.7,10,17.5,10C17.6,10,17.5,10,17.5,10z M17.4,7.3L17.4,7.3c0.1,0.2,0,0.2-0.1,0.2L17.4,7.3C17.3,7.3,17.3,7.3,17.4,7.3
		z M25.2,18.8h0.4C25.5,18.9,25.3,18.9,25.2,18.8z M17.1,7.2C17.2,7.2,17.2,7.2,17.1,7.2C17.2,7.2,17.2,7.2,17.1,7.2
		C17.2,7.2,17.1,7.1,17.1,7.2c0.1-0.1,0.2,0,0.2,0H17.1L17.1,7.2C17.2,7.2,17.2,7.2,17.1,7.2z M21.7,8c-0.1,0-0.1,0-0.2-0.1
		C21.6,7.9,21.7,7.9,21.7,8z M26.3,18.4c-0.1,0-0.2,0-0.3-0.1C26.1,18.3,26.2,18.3,26.3,18.4z M29.4,20.3c-0.1-0.1-0.2-0.2-0.2-0.3
		C29.3,20.1,29.4,20.2,29.4,20.3C29.5,20.3,29.5,20.3,29.4,20.3z M25.6,16.8c0.1,0,0.1,0,0.2,0.2L25.6,16.8z M17.2,7.1V6.9h0.1
		C17.3,7,17.3,7,17.2,7.1z M25.2,16.7c0.1,0,0.1,0,0.1,0.2C25.3,16.8,25.2,16.7,25.2,16.7z M27.4,10c0.1,0.1,0.1,0.1,0.1,0.2
		C27.4,10.1,27.4,10.1,27.4,10z M25.3,19c-0.1,0-0.1-0.1-0.2-0.1C25.2,18.9,25.2,19,25.3,19z M28.6,18.6c-0.1,0-0.1,0-0.2-0.1
		C28.5,18.5,28.6,18.6,28.6,18.6z M25.9,18.4h-0.2C25.9,18.3,25.9,18.3,25.9,18.4z M23.9,18.2c0.1,0,0.1,0,0.2,0.1
		C24,18.3,23.9,18.2,23.9,18.2z M23.5,7.3c0,0,0.1,0,0.1,0.2C23.5,7.4,23.5,7.4,23.5,7.3C23.5,7.4,23.5,7.4,23.5,7.3z M12.8,8.9
		C12.8,8.9,12.8,8.8,12.8,8.9L12.8,8.9z M15.5,12L15.5,12C15.6,11.9,15.6,11.9,15.5,12z M15.8,11.7L15.8,11.7
		C15.9,11.8,15.9,11.8,15.8,11.7z M14.8,13.8c0.1,0,0.1,0.1,0.1,0.2s0,0.1-0.1,0.1L14.7,14C14.8,14,14.8,13.9,14.8,13.8
		C14.8,13.9,14.8,13.8,14.8,13.8z M16.9,14.6c0.1,0,0.1-0.1,0.2,0C17.1,14.6,17,14.6,16.9,14.6z M14.8,13.8v-0.2h0.1
		C14.9,13.8,14.9,13.8,14.8,13.8C14.9,13.8,14.9,13.8,14.8,13.8z M16.4,14.6c-0.1,0-0.2,0-0.3-0.1C16.2,14.6,16.3,14.5,16.4,14.6z"
		/>
</g>
</svg>
