<?xml version="1.0" encoding="utf-8"?>
<!-- Generator: Adobe Illustrator 24.1.0, SVG Export Plug-In . SVG Version: 6.00 Build 0)  -->
<svg version="1.1" id="Layer_1" xmlns="http://www.w3.org/2000/svg" xmlns:xlink="http://www.w3.org/1999/xlink" x="0px" y="0px"
	 viewBox="0 0 30 30" style="enable-background:new 0 0 30 30;" xml:space="preserve">
<style type="text/css">
	.st0{fill:#222240;}
	.st1{fill:#81C45B;}
	.st2{fill:#2050be;}
</style>
<g>
	<g>
		<path class="st0" d="M18.8,1.7c-1-0.2-2-0.4-3-0.4c-1.6,0-3.1,0.3-4.4,0.8l4.4,11.6L18.8,1.7z"/>
	</g>
	<g>
		<path class="st1" d="M29.4,9.9c-1.4-4-4.7-7.1-8.8-8.1l-3,12.1L29.4,9.9z"/>
	</g>
	<g>
		<path class="st2" d="M15,16.3L10.6,4.7c-4.7,1.8-8,6.3-8,11.6c0,6.9,5.6,12.5,12.5,12.5s12.5-5.6,12.5-12.5c0-1.4-0.2-2.7-0.7-4
			L15,16.3z"/>
	</g>
</g>
</svg>
